<svg xmlns="http://www.w3.org/2000/svg" xmlns:xlink="http://www.w3.org/1999/xlink" width="512" zoomAndPan="magnify" viewBox="0 0 384 143.999998" height="192" preserveAspectRatio="xMidYMid meet" version="1.0"><defs><g/></defs><g fill="#b2bb1c" fill-opacity="1"><g transform="translate(21.760931, 85.911094)"><g><path d="M 36.703125 -14.265625 C 36.703125 -11.929688 36.234375 -9.847656 35.296875 -8.015625 C 34.367188 -6.179688 33.085938 -4.632812 31.453125 -3.375 C 29.828125 -2.125 27.910156 -1.171875 25.703125 -0.515625 C 23.503906 0.140625 21.132812 0.46875 18.59375 0.46875 C 16.726562 0.46875 14.96875 0.351562 13.3125 0.125 C 11.65625 -0.09375 10.082031 -0.46875 8.59375 -1 C 7.101562 -1.53125 5.6875 -2.222656 4.34375 -3.078125 C 3.007812 -3.929688 1.71875 -4.976562 0.46875 -6.21875 L 7.09375 -12.75 C 8.664062 -11.21875 10.429688 -10.132812 12.390625 -9.5 C 14.359375 -8.863281 16.425781 -8.546875 18.59375 -8.546875 C 21.289062 -8.546875 23.320312 -9.039062 24.6875 -10.03125 C 26.050781 -11.019531 26.734375 -12.398438 26.734375 -14.171875 C 26.734375 -15.015625 26.601562 -15.734375 26.34375 -16.328125 C 26.09375 -16.921875 25.734375 -17.421875 25.265625 -17.828125 C 24.796875 -18.234375 24.226562 -18.5625 23.5625 -18.8125 C 22.90625 -19.0625 22.171875 -19.269531 21.359375 -19.4375 L 15.625 -20.21875 C 13.613281 -20.53125 11.804688 -21.023438 10.203125 -21.703125 C 8.597656 -22.378906 7.226562 -23.265625 6.09375 -24.359375 C 4.957031 -25.460938 4.085938 -26.789062 3.484375 -28.34375 C 2.890625 -29.90625 2.59375 -31.734375 2.59375 -33.828125 C 2.59375 -36.015625 2.976562 -38.007812 3.75 -39.8125 C 4.519531 -41.625 5.632812 -43.179688 7.09375 -44.484375 C 8.550781 -45.785156 10.335938 -46.796875 12.453125 -47.515625 C 14.566406 -48.234375 16.96875 -48.59375 19.65625 -48.59375 C 21.300781 -48.59375 22.851562 -48.476562 24.3125 -48.25 C 25.769531 -48.03125 27.15625 -47.6875 28.46875 -47.21875 C 29.78125 -46.75 31.03125 -46.140625 32.21875 -45.390625 C 33.40625 -44.648438 34.550781 -43.769531 35.65625 -42.75 L 29.125 -36.40625 C 28.332031 -37.15625 27.519531 -37.75 26.6875 -38.1875 C 25.851562 -38.632812 25.015625 -38.972656 24.171875 -39.203125 C 23.328125 -39.441406 22.5 -39.59375 21.6875 -39.65625 C 20.875 -39.726562 20.09375 -39.765625 19.34375 -39.765625 C 18.144531 -39.765625 17.109375 -39.617188 16.234375 -39.328125 C 15.359375 -39.035156 14.628906 -38.640625 14.046875 -38.140625 C 13.472656 -37.640625 13.046875 -37.046875 12.765625 -36.359375 C 12.492188 -35.679688 12.359375 -34.960938 12.359375 -34.203125 C 12.359375 -33.441406 12.492188 -32.769531 12.765625 -32.1875 C 13.046875 -31.613281 13.429688 -31.125 13.921875 -30.71875 C 14.421875 -30.3125 15.003906 -29.984375 15.671875 -29.734375 C 16.347656 -29.484375 17.066406 -29.3125 17.828125 -29.21875 L 23.484375 -28.46875 C 25.546875 -28.15625 27.394531 -27.640625 29.03125 -26.921875 C 30.664062 -26.210938 32.046875 -25.273438 33.171875 -24.109375 C 34.304688 -22.941406 35.175781 -21.539062 35.78125 -19.90625 C 36.394531 -18.28125 36.703125 -16.398438 36.703125 -14.265625 Z M 36.703125 -14.265625 "/></g></g></g><g fill="#b2bb1c" fill-opacity="1"><g transform="translate(46.294187, 85.911094)"><g><path d="M 32.78125 0 L 30.09375 -8.328125 L 13.515625 -8.328125 C 13.035156 -6.941406 12.539062 -5.546875 12.03125 -4.140625 C 11.53125 -2.734375 11.035156 -1.351562 10.546875 0 L 0.09375 0 L 17.734375 -48.09375 L 25.59375 -48.09375 L 43.40625 0 Z M 21.9375 -32.59375 L 16.375 -16.875 L 27.203125 -16.875 Z M 21.9375 -32.59375 "/></g></g></g><g fill="#b2bb1c" fill-opacity="1"><g transform="translate(18.85541, 106.97363)"><g><path d="M 8.265625 -3.21875 C 8.265625 -2.6875 8.160156 -2.210938 7.953125 -1.796875 C 7.742188 -1.390625 7.453125 -1.046875 7.078125 -0.765625 C 6.710938 -0.484375 6.28125 -0.265625 5.78125 -0.109375 C 5.289062 0.0351562 4.757812 0.109375 4.1875 0.109375 C 3.769531 0.109375 3.375 0.0820312 3 0.03125 C 2.625 -0.0195312 2.269531 -0.101562 1.9375 -0.21875 C 1.601562 -0.34375 1.285156 -0.5 0.984375 -0.6875 C 0.679688 -0.882812 0.390625 -1.125 0.109375 -1.40625 L 1.59375 -2.875 C 1.945312 -2.53125 2.34375 -2.285156 2.78125 -2.140625 C 3.226562 -1.992188 3.695312 -1.921875 4.1875 -1.921875 C 4.789062 -1.921875 5.242188 -2.03125 5.546875 -2.25 C 5.859375 -2.476562 6.015625 -2.789062 6.015625 -3.1875 C 6.015625 -3.382812 5.984375 -3.546875 5.921875 -3.671875 C 5.867188 -3.804688 5.789062 -3.921875 5.6875 -4.015625 C 5.582031 -4.109375 5.453125 -4.179688 5.296875 -4.234375 C 5.148438 -4.285156 4.988281 -4.332031 4.8125 -4.375 L 3.515625 -4.546875 C 3.066406 -4.617188 2.660156 -4.726562 2.296875 -4.875 C 1.929688 -5.03125 1.617188 -5.234375 1.359375 -5.484375 C 1.109375 -5.734375 0.914062 -6.03125 0.78125 -6.375 C 0.644531 -6.726562 0.578125 -7.144531 0.578125 -7.625 C 0.578125 -8.113281 0.664062 -8.5625 0.84375 -8.96875 C 1.019531 -9.375 1.269531 -9.722656 1.59375 -10.015625 C 1.925781 -10.304688 2.328125 -10.53125 2.796875 -10.6875 C 3.273438 -10.851562 3.816406 -10.9375 4.421875 -10.9375 C 4.796875 -10.9375 5.144531 -10.910156 5.46875 -10.859375 C 5.800781 -10.816406 6.113281 -10.738281 6.40625 -10.625 C 6.707031 -10.519531 6.988281 -10.382812 7.25 -10.21875 C 7.519531 -10.050781 7.78125 -9.851562 8.03125 -9.625 L 6.5625 -8.203125 C 6.382812 -8.367188 6.195312 -8.5 6 -8.59375 C 5.8125 -8.695312 5.625 -8.773438 5.4375 -8.828125 C 5.25 -8.878906 5.0625 -8.910156 4.875 -8.921875 C 4.695312 -8.941406 4.523438 -8.953125 4.359375 -8.953125 C 4.085938 -8.953125 3.851562 -8.914062 3.65625 -8.84375 C 3.457031 -8.78125 3.289062 -8.691406 3.15625 -8.578125 C 3.03125 -8.472656 2.9375 -8.34375 2.875 -8.1875 C 2.8125 -8.03125 2.78125 -7.867188 2.78125 -7.703125 C 2.78125 -7.523438 2.8125 -7.367188 2.875 -7.234375 C 2.9375 -7.109375 3.019531 -7 3.125 -6.90625 C 3.238281 -6.820312 3.367188 -6.75 3.515625 -6.6875 C 3.671875 -6.632812 3.835938 -6.597656 4.015625 -6.578125 L 5.296875 -6.40625 C 5.753906 -6.34375 6.164062 -6.226562 6.53125 -6.0625 C 6.90625 -5.90625 7.21875 -5.691406 7.46875 -5.421875 C 7.726562 -5.160156 7.925781 -4.847656 8.0625 -4.484375 C 8.195312 -4.117188 8.265625 -3.695312 8.265625 -3.21875 Z M 8.265625 -3.21875 "/></g></g></g><g fill="#b2bb1c" fill-opacity="1"><g transform="translate(27.699884, 106.97363)"><g><path d="M 7.375 0 L 6.78125 -1.875 L 3.046875 -1.875 C 2.929688 -1.5625 2.816406 -1.242188 2.703125 -0.921875 C 2.597656 -0.609375 2.488281 -0.300781 2.375 0 L 0.015625 0 L 4 -10.828125 L 5.765625 -10.828125 L 9.765625 0 Z M 4.9375 -7.34375 L 3.6875 -3.796875 L 6.125 -3.796875 Z M 4.9375 -7.34375 "/></g></g></g><g fill="#006c68" fill-opacity="1"><g transform="translate(37.528975, 106.97363)"><g><path d="M 7.640625 0 L 4.875 -4.78125 L 3.5625 -3.234375 L 3.5625 0 L 1.3125 0 L 1.3125 -10.828125 L 3.5625 -10.828125 L 3.5625 -6.359375 L 7.25 -10.828125 L 10.0625 -10.828125 L 6.390625 -6.515625 L 10.265625 0 Z M 7.640625 0 "/></g></g></g><g fill="#006c68" fill-opacity="1"><g transform="translate(47.779925, 106.97363)"><g><path d="M 9.25 -3.734375 C 9.25 -3.160156 9.144531 -2.632812 8.9375 -2.15625 C 8.738281 -1.6875 8.457031 -1.285156 8.09375 -0.953125 C 7.738281 -0.617188 7.316406 -0.359375 6.828125 -0.171875 C 6.335938 0.015625 5.804688 0.109375 5.234375 0.109375 C 4.671875 0.109375 4.144531 0.015625 3.65625 -0.171875 C 3.164062 -0.359375 2.738281 -0.617188 2.375 -0.953125 C 2.007812 -1.285156 1.722656 -1.6875 1.515625 -2.15625 C 1.304688 -2.632812 1.203125 -3.160156 1.203125 -3.734375 L 1.203125 -10.828125 L 3.5 -10.828125 L 3.5 -3.8125 C 3.5 -3.519531 3.535156 -3.253906 3.609375 -3.015625 C 3.691406 -2.785156 3.804688 -2.585938 3.953125 -2.421875 C 4.109375 -2.265625 4.289062 -2.140625 4.5 -2.046875 C 4.71875 -1.960938 4.960938 -1.921875 5.234375 -1.921875 C 5.515625 -1.921875 5.765625 -1.960938 5.984375 -2.046875 C 6.203125 -2.140625 6.382812 -2.265625 6.53125 -2.421875 C 6.6875 -2.585938 6.804688 -2.785156 6.890625 -3.015625 C 6.972656 -3.253906 7.015625 -3.519531 7.015625 -3.8125 L 7.015625 -10.828125 L 9.25 -10.828125 Z M 9.25 -3.734375 "/></g></g></g><g fill="#737373" fill-opacity="1"><g transform="translate(58.271662, 106.97363)"><g><path d="M 0.96875 -1.1875 C 0.96875 -1.363281 1 -1.53125 1.0625 -1.6875 C 1.132812 -1.84375 1.226562 -1.976562 1.34375 -2.09375 C 1.457031 -2.21875 1.585938 -2.3125 1.734375 -2.375 C 1.890625 -2.445312 2.0625 -2.484375 2.25 -2.484375 C 2.425781 -2.484375 2.59375 -2.445312 2.75 -2.375 C 2.90625 -2.3125 3.039062 -2.21875 3.15625 -2.09375 C 3.269531 -1.976562 3.363281 -1.84375 3.4375 -1.6875 C 3.507812 -1.53125 3.546875 -1.363281 3.546875 -1.1875 C 3.546875 -1.007812 3.507812 -0.84375 3.4375 -0.6875 C 3.363281 -0.539062 3.269531 -0.40625 3.15625 -0.28125 C 3.039062 -0.164062 2.90625 -0.078125 2.75 -0.015625 C 2.59375 0.046875 2.425781 0.078125 2.25 0.078125 C 2.0625 0.078125 1.890625 0.046875 1.734375 -0.015625 C 1.585938 -0.078125 1.457031 -0.164062 1.34375 -0.28125 C 1.226562 -0.40625 1.132812 -0.539062 1.0625 -0.6875 C 1 -0.84375 0.96875 -1.007812 0.96875 -1.1875 Z M 0.96875 -1.1875 "/></g></g></g><g fill="#737373" fill-opacity="1"><g transform="translate(62.759745, 106.97363)"><g><path d="M 8.265625 -3.21875 C 8.265625 -2.6875 8.160156 -2.210938 7.953125 -1.796875 C 7.742188 -1.390625 7.453125 -1.046875 7.078125 -0.765625 C 6.710938 -0.484375 6.28125 -0.265625 5.78125 -0.109375 C 5.289062 0.0351562 4.757812 0.109375 4.1875 0.109375 C 3.769531 0.109375 3.375 0.0820312 3 0.03125 C 2.625 -0.0195312 2.269531 -0.101562 1.9375 -0.21875 C 1.601562 -0.34375 1.285156 -0.5 0.984375 -0.6875 C 0.679688 -0.882812 0.390625 -1.125 0.109375 -1.40625 L 1.59375 -2.875 C 1.945312 -2.53125 2.34375 -2.285156 2.78125 -2.140625 C 3.226562 -1.992188 3.695312 -1.921875 4.1875 -1.921875 C 4.789062 -1.921875 5.242188 -2.03125 5.546875 -2.25 C 5.859375 -2.476562 6.015625 -2.789062 6.015625 -3.1875 C 6.015625 -3.382812 5.984375 -3.546875 5.921875 -3.671875 C 5.867188 -3.804688 5.789062 -3.921875 5.6875 -4.015625 C 5.582031 -4.109375 5.453125 -4.179688 5.296875 -4.234375 C 5.148438 -4.285156 4.988281 -4.332031 4.8125 -4.375 L 3.515625 -4.546875 C 3.066406 -4.617188 2.660156 -4.726562 2.296875 -4.875 C 1.929688 -5.03125 1.617188 -5.234375 1.359375 -5.484375 C 1.109375 -5.734375 0.914062 -6.03125 0.78125 -6.375 C 0.644531 -6.726562 0.578125 -7.144531 0.578125 -7.625 C 0.578125 -8.113281 0.664062 -8.5625 0.84375 -8.96875 C 1.019531 -9.375 1.269531 -9.722656 1.59375 -10.015625 C 1.925781 -10.304688 2.328125 -10.53125 2.796875 -10.6875 C 3.273438 -10.851562 3.816406 -10.9375 4.421875 -10.9375 C 4.796875 -10.9375 5.144531 -10.910156 5.46875 -10.859375 C 5.800781 -10.816406 6.113281 -10.738281 6.40625 -10.625 C 6.707031 -10.519531 6.988281 -10.382812 7.25 -10.21875 C 7.519531 -10.050781 7.78125 -9.851562 8.03125 -9.625 L 6.5625 -8.203125 C 6.382812 -8.367188 6.195312 -8.5 6 -8.59375 C 5.8125 -8.695312 5.625 -8.773438 5.4375 -8.828125 C 5.25 -8.878906 5.0625 -8.910156 4.875 -8.921875 C 4.695312 -8.941406 4.523438 -8.953125 4.359375 -8.953125 C 4.085938 -8.953125 3.851562 -8.914062 3.65625 -8.84375 C 3.457031 -8.78125 3.289062 -8.691406 3.15625 -8.578125 C 3.03125 -8.472656 2.9375 -8.34375 2.875 -8.1875 C 2.8125 -8.03125 2.78125 -7.867188 2.78125 -7.703125 C 2.78125 -7.523438 2.8125 -7.367188 2.875 -7.234375 C 2.9375 -7.109375 3.019531 -7 3.125 -6.90625 C 3.238281 -6.820312 3.367188 -6.75 3.515625 -6.6875 C 3.671875 -6.632812 3.835938 -6.597656 4.015625 -6.578125 L 5.296875 -6.40625 C 5.753906 -6.34375 6.164062 -6.226562 6.53125 -6.0625 C 6.90625 -5.90625 7.21875 -5.691406 7.46875 -5.421875 C 7.726562 -5.160156 7.925781 -4.847656 8.0625 -4.484375 C 8.195312 -4.117188 8.265625 -3.695312 8.265625 -3.21875 Z M 8.265625 -3.21875 "/></g></g></g><g fill="#737373" fill-opacity="1"><g transform="translate(71.604218, 106.97363)"><g><path d="M 7.375 0 L 6.78125 -1.875 L 3.046875 -1.875 C 2.929688 -1.5625 2.816406 -1.242188 2.703125 -0.921875 C 2.597656 -0.609375 2.488281 -0.300781 2.375 0 L 0.015625 0 L 4 -10.828125 L 5.765625 -10.828125 L 9.765625 0 Z M 4.9375 -7.34375 L 3.6875 -3.796875 L 6.125 -3.796875 Z M 4.9375 -7.34375 "/></g></g></g><g fill="#737373" fill-opacity="1"><g transform="translate(81.423216, 106.97363)"><g><path d="M 0.96875 -1.1875 C 0.96875 -1.363281 1 -1.53125 1.0625 -1.6875 C 1.132812 -1.84375 1.226562 -1.976562 1.34375 -2.09375 C 1.457031 -2.21875 1.585938 -2.3125 1.734375 -2.375 C 1.890625 -2.445312 2.0625 -2.484375 2.25 -2.484375 C 2.425781 -2.484375 2.59375 -2.445312 2.75 -2.375 C 2.90625 -2.3125 3.039062 -2.21875 3.15625 -2.09375 C 3.269531 -1.976562 3.363281 -1.84375 3.4375 -1.6875 C 3.507812 -1.53125 3.546875 -1.363281 3.546875 -1.1875 C 3.546875 -1.007812 3.507812 -0.84375 3.4375 -0.6875 C 3.363281 -0.539062 3.269531 -0.40625 3.15625 -0.28125 C 3.039062 -0.164062 2.90625 -0.078125 2.75 -0.015625 C 2.59375 0.046875 2.425781 0.078125 2.25 0.078125 C 2.0625 0.078125 1.890625 0.046875 1.734375 -0.015625 C 1.585938 -0.078125 1.457031 -0.164062 1.34375 -0.28125 C 1.226562 -0.40625 1.132812 -0.539062 1.0625 -0.6875 C 1 -0.84375 0.96875 -1.007812 0.96875 -1.1875 Z M 0.96875 -1.1875 "/></g></g></g><g fill="#737373" fill-opacity="1"><g transform="translate(85.911299, 106.97363)"><g><path d="M 7.640625 0 L 4.875 -4.78125 L 3.5625 -3.234375 L 3.5625 0 L 1.3125 0 L 1.3125 -10.828125 L 3.5625 -10.828125 L 3.5625 -6.359375 L 7.25 -10.828125 L 10.0625 -10.828125 L 6.390625 -6.515625 L 10.265625 0 Z M 7.640625 0 "/></g></g></g><g fill="#737373" fill-opacity="1"><g transform="translate(96.162249, 106.97363)"><g><path d="M 9.25 -3.734375 C 9.25 -3.160156 9.144531 -2.632812 8.9375 -2.15625 C 8.738281 -1.6875 8.457031 -1.285156 8.09375 -0.953125 C 7.738281 -0.617188 7.316406 -0.359375 6.828125 -0.171875 C 6.335938 0.015625 5.804688 0.109375 5.234375 0.109375 C 4.671875 0.109375 4.144531 0.015625 3.65625 -0.171875 C 3.164062 -0.359375 2.738281 -0.617188 2.375 -0.953125 C 2.007812 -1.285156 1.722656 -1.6875 1.515625 -2.15625 C 1.304688 -2.632812 1.203125 -3.160156 1.203125 -3.734375 L 1.203125 -10.828125 L 3.5 -10.828125 L 3.5 -3.8125 C 3.5 -3.519531 3.535156 -3.253906 3.609375 -3.015625 C 3.691406 -2.785156 3.804688 -2.585938 3.953125 -2.421875 C 4.109375 -2.265625 4.289062 -2.140625 4.5 -2.046875 C 4.71875 -1.960938 4.960938 -1.921875 5.234375 -1.921875 C 5.515625 -1.921875 5.765625 -1.960938 5.984375 -2.046875 C 6.203125 -2.140625 6.382812 -2.265625 6.53125 -2.421875 C 6.6875 -2.585938 6.804688 -2.785156 6.890625 -3.015625 C 6.972656 -3.253906 7.015625 -3.519531 7.015625 -3.8125 L 7.015625 -10.828125 L 9.25 -10.828125 Z M 9.25 -3.734375 "/></g></g></g><g fill="#737373" fill-opacity="1"><g transform="translate(106.650246, 106.97363)"><g><path d="M 0.96875 -1.1875 C 0.96875 -1.363281 1 -1.53125 1.0625 -1.6875 C 1.132812 -1.84375 1.226562 -1.976562 1.34375 -2.09375 C 1.457031 -2.21875 1.585938 -2.3125 1.734375 -2.375 C 1.890625 -2.445312 2.0625 -2.484375 2.25 -2.484375 C 2.425781 -2.484375 2.59375 -2.445312 2.75 -2.375 C 2.90625 -2.3125 3.039062 -2.21875 3.15625 -2.09375 C 3.269531 -1.976562 3.363281 -1.84375 3.4375 -1.6875 C 3.507812 -1.53125 3.546875 -1.363281 3.546875 -1.1875 C 3.546875 -1.007812 3.507812 -0.84375 3.4375 -0.6875 C 3.363281 -0.539062 3.269531 -0.40625 3.15625 -0.28125 C 3.039062 -0.164062 2.90625 -0.078125 2.75 -0.015625 C 2.59375 0.046875 2.425781 0.078125 2.25 0.078125 C 2.0625 0.078125 1.890625 0.046875 1.734375 -0.015625 C 1.585938 -0.078125 1.457031 -0.164062 1.34375 -0.28125 C 1.226562 -0.40625 1.132812 -0.539062 1.0625 -0.6875 C 1 -0.84375 0.96875 -1.007812 0.96875 -1.1875 Z M 0.96875 -1.1875 "/></g></g></g><g fill="#737373" fill-opacity="1"><g transform="translate(111.138329, 106.97363)"><g><path d="M 7.375 0 L 6.78125 -1.875 L 3.046875 -1.875 C 2.929688 -1.5625 2.816406 -1.242188 2.703125 -0.921875 C 2.597656 -0.609375 2.488281 -0.300781 2.375 0 L 0.015625 0 L 4 -10.828125 L 5.765625 -10.828125 L 9.765625 0 Z M 4.9375 -7.34375 L 3.6875 -3.796875 L 6.125 -3.796875 Z M 4.9375 -7.34375 "/></g></g></g><g fill="#737373" fill-opacity="1"><g transform="translate(120.957327, 106.97363)"><g><path d="M 8.9375 -3.34375 C 8.84375 -2.78125 8.675781 -2.28125 8.4375 -1.84375 C 8.207031 -1.414062 7.914062 -1.054688 7.5625 -0.765625 C 7.21875 -0.484375 6.820312 -0.265625 6.375 -0.109375 C 5.925781 0.0351562 5.445312 0.109375 4.9375 0.109375 C 4.332031 0.109375 3.785156 0.00390625 3.296875 -0.203125 C 2.816406 -0.421875 2.382812 -0.71875 2 -1.09375 C 1.71875 -1.375 1.503906 -1.664062 1.359375 -1.96875 C 1.210938 -2.28125 1.109375 -2.613281 1.046875 -2.96875 C 0.984375 -3.320312 0.945312 -3.695312 0.9375 -4.09375 C 0.925781 -4.5 0.921875 -4.941406 0.921875 -5.421875 C 0.921875 -5.878906 0.925781 -6.3125 0.9375 -6.71875 C 0.945312 -7.125 0.984375 -7.503906 1.046875 -7.859375 C 1.109375 -8.210938 1.210938 -8.539062 1.359375 -8.84375 C 1.503906 -9.15625 1.71875 -9.453125 2 -9.734375 C 2.382812 -10.140625 2.816406 -10.445312 3.296875 -10.65625 C 3.785156 -10.863281 4.332031 -10.96875 4.9375 -10.96875 C 5.445312 -10.96875 5.925781 -10.890625 6.375 -10.734375 C 6.820312 -10.578125 7.21875 -10.347656 7.5625 -10.046875 C 7.914062 -9.753906 8.210938 -9.382812 8.453125 -8.9375 C 8.691406 -8.5 8.859375 -7.988281 8.953125 -7.40625 L 6.6875 -7.40625 C 6.632812 -7.613281 6.5625 -7.8125 6.46875 -8 C 6.382812 -8.1875 6.269531 -8.347656 6.125 -8.484375 C 5.976562 -8.628906 5.804688 -8.738281 5.609375 -8.8125 C 5.421875 -8.894531 5.195312 -8.9375 4.9375 -8.9375 C 4.664062 -8.9375 4.421875 -8.882812 4.203125 -8.78125 C 3.984375 -8.6875 3.804688 -8.550781 3.671875 -8.375 C 3.578125 -8.257812 3.492188 -8.140625 3.421875 -8.015625 C 3.359375 -7.890625 3.304688 -7.71875 3.265625 -7.5 C 3.234375 -7.289062 3.207031 -7.019531 3.1875 -6.6875 C 3.175781 -6.351562 3.171875 -5.929688 3.171875 -5.421875 C 3.171875 -4.910156 3.175781 -4.488281 3.1875 -4.15625 C 3.207031 -3.832031 3.234375 -3.5625 3.265625 -3.34375 C 3.304688 -3.132812 3.359375 -2.960938 3.421875 -2.828125 C 3.492188 -2.691406 3.578125 -2.566406 3.671875 -2.453125 C 3.804688 -2.304688 3.984375 -2.179688 4.203125 -2.078125 C 4.421875 -1.972656 4.664062 -1.921875 4.9375 -1.921875 C 5.195312 -1.921875 5.421875 -1.957031 5.609375 -2.03125 C 5.804688 -2.113281 5.976562 -2.222656 6.125 -2.359375 C 6.269531 -2.503906 6.382812 -2.664062 6.46875 -2.84375 C 6.5625 -3.03125 6.632812 -3.234375 6.6875 -3.453125 L 8.859375 -3.453125 Z M 8.9375 -3.34375 "/></g></g></g><g fill="#737373" fill-opacity="1"><g transform="translate(130.56035, 106.97363)"><g><path d="M 0.96875 -1.1875 C 0.96875 -1.363281 1 -1.53125 1.0625 -1.6875 C 1.132812 -1.84375 1.226562 -1.976562 1.34375 -2.09375 C 1.457031 -2.21875 1.585938 -2.3125 1.734375 -2.375 C 1.890625 -2.445312 2.0625 -2.484375 2.25 -2.484375 C 2.425781 -2.484375 2.59375 -2.445312 2.75 -2.375 C 2.90625 -2.3125 3.039062 -2.21875 3.15625 -2.09375 C 3.269531 -1.976562 3.363281 -1.84375 3.4375 -1.6875 C 3.507812 -1.53125 3.546875 -1.363281 3.546875 -1.1875 C 3.546875 -1.007812 3.507812 -0.84375 3.4375 -0.6875 C 3.363281 -0.539062 3.269531 -0.40625 3.15625 -0.28125 C 3.039062 -0.164062 2.90625 -0.078125 2.75 -0.015625 C 2.59375 0.046875 2.425781 0.078125 2.25 0.078125 C 2.0625 0.078125 1.890625 0.046875 1.734375 -0.015625 C 1.585938 -0.078125 1.457031 -0.164062 1.34375 -0.28125 C 1.226562 -0.40625 1.132812 -0.539062 1.0625 -0.6875 C 1 -0.84375 0.96875 -1.007812 0.96875 -1.1875 Z M 0.96875 -1.1875 "/></g></g></g><g fill="#737373" fill-opacity="1"><g transform="translate(135.048433, 106.97363)"><g><path d="M 5.109375 -8.859375 L 5.109375 0 L 2.84375 0 L 2.84375 -8.859375 L 0.046875 -8.859375 L 0.046875 -10.828125 L 7.9375 -10.828125 L 7.9375 -8.859375 Z M 5.109375 -8.859375 "/></g></g></g><g fill="#737373" fill-opacity="1"><g transform="translate(143.034271, 106.97363)"><g><path d="M 7.125 0 L 7.125 -4.484375 L 3.5625 -4.484375 L 3.5625 0 L 1.3125 0 L 1.3125 -10.828125 L 3.5625 -10.828125 L 3.5625 -6.5 L 7.125 -6.5 L 7.125 -10.828125 L 9.390625 -10.828125 L 9.390625 0 Z M 7.125 0 "/></g></g></g><g fill="#006c68" fill-opacity="1"><g transform="translate(73.3599, 86.718397)"><g><path d="M 33.921875 0 L 21.671875 -21.265625 L 15.8125 -14.359375 L 15.8125 0 L 5.84375 0 L 5.84375 -48.09375 L 15.8125 -48.09375 L 15.8125 -28.265625 L 32.1875 -48.09375 L 44.65625 -48.09375 L 28.359375 -28.9375 L 45.625 0 Z M 33.921875 0 "/></g></g></g><g fill="#006c68" fill-opacity="1"><g transform="translate(104.129375, 86.718397)"><g><path d="M 41.109375 -16.59375 C 41.109375 -14.050781 40.648438 -11.726562 39.734375 -9.625 C 38.828125 -7.53125 37.570312 -5.734375 35.96875 -4.234375 C 34.375 -2.734375 32.488281 -1.570312 30.3125 -0.75 C 28.132812 0.0625 25.789062 0.46875 23.28125 0.46875 C 20.769531 0.46875 18.421875 0.0625 16.234375 -0.75 C 14.054688 -1.570312 12.160156 -2.734375 10.546875 -4.234375 C 8.929688 -5.734375 7.660156 -7.53125 6.734375 -9.625 C 5.816406 -11.726562 5.359375 -14.050781 5.359375 -16.59375 L 5.359375 -48.09375 L 15.53125 -48.09375 L 15.53125 -16.96875 C 15.53125 -15.65625 15.707031 -14.472656 16.0625 -13.421875 C 16.414062 -12.378906 16.921875 -11.492188 17.578125 -10.765625 C 18.242188 -10.046875 19.054688 -9.492188 20.015625 -9.109375 C 20.972656 -8.734375 22.0625 -8.546875 23.28125 -8.546875 C 24.5 -8.546875 25.59375 -8.734375 26.5625 -9.109375 C 27.539062 -9.492188 28.367188 -10.046875 29.046875 -10.765625 C 29.722656 -11.492188 30.238281 -12.378906 30.59375 -13.421875 C 30.957031 -14.472656 31.140625 -15.65625 31.140625 -16.96875 L 31.140625 -48.09375 L 41.109375 -48.09375 Z M 41.109375 -16.59375 "/></g></g></g><g fill="#545454" fill-opacity="1"><g transform="translate(160.227167, 53.713798)"><g><path d="M 11.9375 -4.34375 C 11.9375 -3.75 11.816406 -3.179688 11.578125 -2.640625 C 11.347656 -2.097656 10.992188 -1.617188 10.515625 -1.203125 C 10.046875 -0.785156 9.453125 -0.453125 8.734375 -0.203125 C 8.023438 0.046875 7.191406 0.171875 6.234375 0.171875 C 5.585938 0.171875 4.992188 0.117188 4.453125 0.015625 C 3.921875 -0.078125 3.414062 -0.222656 2.9375 -0.421875 C 2.46875 -0.628906 2.019531 -0.890625 1.59375 -1.203125 C 1.175781 -1.515625 0.757812 -1.890625 0.34375 -2.328125 L 2.5 -4.65625 C 2.789062 -4.34375 3.070312 -4.078125 3.34375 -3.859375 C 3.613281 -3.648438 3.890625 -3.476562 4.171875 -3.34375 C 4.460938 -3.207031 4.769531 -3.109375 5.09375 -3.046875 C 5.425781 -2.984375 5.785156 -2.953125 6.171875 -2.953125 C 6.597656 -2.953125 6.953125 -2.988281 7.234375 -3.0625 C 7.523438 -3.132812 7.757812 -3.234375 7.9375 -3.359375 C 8.113281 -3.492188 8.238281 -3.644531 8.3125 -3.8125 C 8.382812 -3.976562 8.421875 -4.15625 8.421875 -4.34375 C 8.421875 -4.519531 8.367188 -4.675781 8.265625 -4.8125 C 8.171875 -4.957031 8.046875 -5.082031 7.890625 -5.1875 C 7.734375 -5.289062 7.554688 -5.378906 7.359375 -5.453125 C 7.160156 -5.523438 6.960938 -5.582031 6.765625 -5.625 L 5.6875 -5.859375 C 4.96875 -6.015625 4.320312 -6.195312 3.75 -6.40625 C 3.175781 -6.625 2.691406 -6.890625 2.296875 -7.203125 C 1.898438 -7.515625 1.597656 -7.890625 1.390625 -8.328125 C 1.179688 -8.765625 1.078125 -9.285156 1.078125 -9.890625 C 1.078125 -10.472656 1.1875 -11.023438 1.40625 -11.546875 C 1.625 -12.066406 1.945312 -12.519531 2.375 -12.90625 C 2.800781 -13.289062 3.332031 -13.59375 3.96875 -13.8125 C 4.613281 -14.039062 5.359375 -14.15625 6.203125 -14.15625 C 6.691406 -14.15625 7.160156 -14.117188 7.609375 -14.046875 C 8.054688 -13.972656 8.492188 -13.859375 8.921875 -13.703125 C 9.359375 -13.546875 9.789062 -13.332031 10.21875 -13.0625 C 10.65625 -12.800781 11.109375 -12.484375 11.578125 -12.109375 L 9.328125 -10.03125 C 9.046875 -10.238281 8.773438 -10.410156 8.515625 -10.546875 C 8.253906 -10.679688 8 -10.785156 7.75 -10.859375 C 7.507812 -10.941406 7.257812 -10.992188 7 -11.015625 C 6.75 -11.046875 6.484375 -11.0625 6.203125 -11.0625 C 5.648438 -11.0625 5.226562 -10.96875 4.9375 -10.78125 C 4.644531 -10.59375 4.5 -10.34375 4.5 -10.03125 C 4.5 -9.84375 4.5625 -9.691406 4.6875 -9.578125 C 4.820312 -9.460938 4.984375 -9.363281 5.171875 -9.28125 C 5.359375 -9.195312 5.554688 -9.128906 5.765625 -9.078125 C 5.972656 -9.035156 6.15625 -8.992188 6.3125 -8.953125 L 7.53125 -8.640625 C 8.125 -8.492188 8.6875 -8.316406 9.21875 -8.109375 C 9.757812 -7.898438 10.226562 -7.628906 10.625 -7.296875 C 11.03125 -6.960938 11.347656 -6.554688 11.578125 -6.078125 C 11.816406 -5.597656 11.9375 -5.019531 11.9375 -4.34375 Z M 11.9375 -4.34375 "/></g></g><g transform="translate(173.065606, 53.713798)"><g><path d="M 4.015625 -12.59375 C 4.035156 -12.226562 4.078125 -11.929688 4.140625 -11.703125 C 4.210938 -11.484375 4.289062 -11.375 4.375 -11.375 L 8.21875 -11.375 L 8.21875 -8.328125 L 3.984375 -8.328125 C 3.648438 -8.328125 3.304688 -8.394531 2.953125 -8.53125 C 2.597656 -8.664062 2.273438 -8.898438 1.984375 -9.234375 C 1.691406 -9.566406 1.445312 -10.003906 1.25 -10.546875 C 1.0625 -11.097656 0.957031 -11.78125 0.9375 -12.59375 Z M 4.015625 -5.828125 C 4.035156 -5.460938 4.078125 -5.164062 4.140625 -4.9375 C 4.210938 -4.71875 4.289062 -4.609375 4.375 -4.609375 L 8.21875 -4.609375 L 8.21875 -1.5625 L 3.984375 -1.5625 C 3.648438 -1.5625 3.304688 -1.628906 2.953125 -1.765625 C 2.597656 -1.898438 2.273438 -2.132812 1.984375 -2.46875 C 1.691406 -2.800781 1.445312 -3.238281 1.25 -3.78125 C 1.0625 -4.332031 0.957031 -5.015625 0.9375 -5.828125 Z M 4.015625 -5.828125 "/></g></g><g transform="translate(182.60128, 53.713798)"><g><path d="M 7.625 0.140625 C 6.75 0.140625 5.945312 0.0195312 5.21875 -0.21875 C 4.5 -0.457031 3.878906 -0.804688 3.359375 -1.265625 C 2.847656 -1.734375 2.445312 -2.304688 2.15625 -2.984375 C 1.875 -3.660156 1.734375 -4.4375 1.734375 -5.3125 L 1.734375 -14.015625 L 5.234375 -14.015625 L 5.234375 -5.546875 C 5.234375 -4.710938 5.425781 -4.070312 5.8125 -3.625 C 6.207031 -3.175781 6.8125 -2.953125 7.625 -2.953125 C 8.445312 -2.953125 9.050781 -3.175781 9.4375 -3.625 C 9.832031 -4.070312 10.03125 -4.710938 10.03125 -5.546875 L 10.03125 -14.015625 L 13.53125 -14.015625 L 13.53125 -5.3125 C 13.53125 -4.4375 13.382812 -3.660156 13.09375 -2.984375 C 12.800781 -2.304688 12.394531 -1.734375 11.875 -1.265625 C 11.363281 -0.804688 10.742188 -0.457031 10.015625 -0.21875 C 9.296875 0.0195312 8.5 0.140625 7.625 0.140625 Z M 7.625 0.140625 "/></g></g><g transform="translate(197.861747, 53.713798)"><g><path d="M 7.625 0.140625 C 6.75 0.140625 5.945312 0.0195312 5.21875 -0.21875 C 4.5 -0.457031 3.878906 -0.804688 3.359375 -1.265625 C 2.847656 -1.734375 2.445312 -2.304688 2.15625 -2.984375 C 1.875 -3.660156 1.734375 -4.4375 1.734375 -5.3125 L 1.734375 -14.015625 L 5.234375 -14.015625 L 5.234375 -5.546875 C 5.234375 -4.710938 5.425781 -4.070312 5.8125 -3.625 C 6.207031 -3.175781 6.8125 -2.953125 7.625 -2.953125 C 8.445312 -2.953125 9.050781 -3.175781 9.4375 -3.625 C 9.832031 -4.070312 10.03125 -4.710938 10.03125 -5.546875 L 10.03125 -14.015625 L 13.53125 -14.015625 L 13.53125 -5.3125 C 13.53125 -4.4375 13.382812 -3.660156 13.09375 -2.984375 C 12.800781 -2.304688 12.394531 -1.734375 11.875 -1.265625 C 11.363281 -0.804688 10.742188 -0.457031 10.015625 -0.21875 C 9.296875 0.0195312 8.5 0.140625 7.625 0.140625 Z M 7.625 0.140625 "/></g></g><g transform="translate(213.122214, 53.713798)"><g><path d="M 1.171875 -11.515625 C 1.628906 -11.953125 2.082031 -12.335938 2.53125 -12.671875 C 2.976562 -13.003906 3.4375 -13.28125 3.90625 -13.5 C 4.375 -13.726562 4.863281 -13.898438 5.375 -14.015625 C 5.882812 -14.128906 6.4375 -14.1875 7.03125 -14.1875 C 9.1875 -14.1875 10.828125 -13.578125 11.953125 -12.359375 C 13.078125 -11.148438 13.640625 -9.363281 13.640625 -7 C 13.640625 -5.882812 13.492188 -4.882812 13.203125 -4 C 12.910156 -3.113281 12.492188 -2.359375 11.953125 -1.734375 C 11.421875 -1.117188 10.769531 -0.644531 10 -0.3125 C 9.226562 0.0078125 8.359375 0.171875 7.390625 0.171875 C 6.660156 0.171875 5.988281 0.078125 5.375 -0.109375 C 4.769531 -0.304688 4.222656 -0.582031 3.734375 -0.9375 C 3.242188 -1.289062 2.8125 -1.71875 2.4375 -2.21875 C 2.070312 -2.726562 1.78125 -3.296875 1.5625 -3.921875 C 1.476562 -4.148438 1.410156 -4.453125 1.359375 -4.828125 C 1.304688 -5.210938 1.269531 -5.625 1.25 -6.0625 C 1.226562 -6.5 1.21875 -6.945312 1.21875 -7.40625 C 1.21875 -7.875 1.21875 -8.304688 1.21875 -8.703125 L 7.078125 -8.703125 L 7.078125 -5.765625 L 4.609375 -5.765625 C 4.609375 -5.398438 4.675781 -5.050781 4.8125 -4.71875 C 4.957031 -4.382812 5.15625 -4.085938 5.40625 -3.828125 C 5.65625 -3.578125 5.945312 -3.375 6.28125 -3.21875 C 6.613281 -3.0625 6.984375 -2.984375 7.390625 -2.984375 C 7.953125 -2.984375 8.410156 -3.09375 8.765625 -3.3125 C 9.128906 -3.53125 9.414062 -3.820312 9.625 -4.1875 C 9.832031 -4.550781 9.972656 -4.976562 10.046875 -5.46875 C 10.117188 -5.957031 10.15625 -6.46875 10.15625 -7 C 10.15625 -7.3125 10.132812 -7.628906 10.09375 -7.953125 C 10.0625 -8.273438 10.003906 -8.582031 9.921875 -8.875 C 9.835938 -9.175781 9.71875 -9.457031 9.5625 -9.71875 C 9.40625 -9.988281 9.207031 -10.21875 8.96875 -10.40625 C 8.738281 -10.601562 8.457031 -10.753906 8.125 -10.859375 C 7.789062 -10.972656 7.40625 -11.03125 6.96875 -11.03125 C 6.695312 -11.03125 6.429688 -11.003906 6.171875 -10.953125 C 5.921875 -10.898438 5.664062 -10.816406 5.40625 -10.703125 C 5.15625 -10.585938 4.894531 -10.4375 4.625 -10.25 C 4.351562 -10.0625 4.070312 -9.832031 3.78125 -9.5625 Z M 1.171875 -11.515625 "/></g></g></g><g fill="#545454" fill-opacity="1"><g transform="translate(227.83222, 53.713798)"><g><path d="M 5.234375 -14.015625 L 5.234375 -5.546875 C 5.234375 -5.054688 5.296875 -4.648438 5.421875 -4.328125 C 5.546875 -4.003906 5.710938 -3.738281 5.921875 -3.53125 C 6.128906 -3.332031 6.367188 -3.191406 6.640625 -3.109375 C 6.910156 -3.023438 7.179688 -2.984375 7.453125 -2.984375 C 7.734375 -2.984375 8.015625 -3.035156 8.296875 -3.140625 C 8.585938 -3.253906 8.847656 -3.425781 9.078125 -3.65625 C 9.316406 -3.882812 9.507812 -4.171875 9.65625 -4.515625 C 9.8125 -4.859375 9.890625 -5.257812 9.890625 -5.71875 L 9.890625 -14.015625 L 13.390625 -14.015625 L 13.390625 0 L 10 0 L 10 -1.453125 C 9.5 -0.929688 8.96875 -0.53125 8.40625 -0.25 C 7.84375 0.03125 7.203125 0.171875 6.484375 0.171875 C 5.742188 0.171875 5.082031 0.0390625 4.5 -0.21875 C 3.914062 -0.488281 3.414062 -0.859375 3 -1.328125 C 2.59375 -1.796875 2.28125 -2.347656 2.0625 -2.984375 C 1.84375 -3.628906 1.734375 -4.320312 1.734375 -5.0625 L 1.734375 -14.015625 Z M 5.234375 -14.015625 "/></g></g><g transform="translate(242.957189, 53.713798)"><g><path d="M -4.96875 5.203125 C -4.96875 5.066406 -4.988281 4.96875 -5.03125 4.90625 C -5.070312 4.84375 -5.128906 4.8125 -5.203125 4.8125 L -6.421875 4.8125 L -6.421875 2.015625 L -4.96875 2.015625 C -4.363281 2.015625 -3.851562 2.054688 -3.4375 2.140625 C -3.03125 2.222656 -2.695312 2.382812 -2.4375 2.625 C -2.1875 2.863281 -2.003906 3.203125 -1.890625 3.640625 C -1.785156 4.085938 -1.734375 4.664062 -1.734375 5.375 L -1.734375 7.84375 L -4.96875 7.84375 Z M -4.96875 5.203125 "/></g></g></g><g fill="#545454" fill-opacity="1"><g transform="translate(242.957189, 53.713798)"><g><path d="M 13.390625 -14.015625 L 13.390625 -5.0625 C 13.390625 -4.320312 13.28125 -3.628906 13.0625 -2.984375 C 12.84375 -2.347656 12.523438 -1.796875 12.109375 -1.328125 C 11.703125 -0.859375 11.203125 -0.488281 10.609375 -0.21875 C 10.023438 0.0390625 9.367188 0.171875 8.640625 0.171875 C 7.921875 0.171875 7.28125 0.03125 6.71875 -0.25 C 6.15625 -0.53125 5.625 -0.929688 5.125 -1.453125 L 5.125 0 L 1.734375 0 L 1.734375 -14.015625 L 5.234375 -14.015625 L 5.234375 -5.71875 C 5.234375 -5.257812 5.304688 -4.859375 5.453125 -4.515625 C 5.609375 -4.171875 5.800781 -3.882812 6.03125 -3.65625 C 6.269531 -3.425781 6.53125 -3.253906 6.8125 -3.140625 C 7.101562 -3.035156 7.390625 -2.984375 7.671875 -2.984375 C 7.941406 -2.984375 8.207031 -3.023438 8.46875 -3.109375 C 8.738281 -3.191406 8.976562 -3.332031 9.1875 -3.53125 C 9.394531 -3.738281 9.5625 -4.003906 9.6875 -4.328125 C 9.820312 -4.648438 9.890625 -5.054688 9.890625 -5.546875 L 9.890625 -14.015625 Z M 13.390625 -14.015625 "/></g></g><g transform="translate(258.082157, 53.713798)"><g><path d="M -6.421875 -20.25 C -6.421875 -20.09375 -6.410156 -19.9375 -6.390625 -19.78125 C -6.378906 -19.625 -6.351562 -19.484375 -6.3125 -19.359375 C -6.269531 -19.242188 -6.222656 -19.148438 -6.171875 -19.078125 C -6.117188 -19.015625 -6.050781 -18.984375 -5.96875 -18.984375 L 0.796875 -18.984375 L 0.796875 -16.375 L -6.484375 -16.375 C -6.710938 -16.375 -6.945312 -16.390625 -7.1875 -16.421875 C -7.4375 -16.453125 -7.675781 -16.515625 -7.90625 -16.609375 C -8.132812 -16.703125 -8.347656 -16.835938 -8.546875 -17.015625 C -8.742188 -17.191406 -8.921875 -17.421875 -9.078125 -17.703125 C -9.234375 -17.992188 -9.351562 -18.347656 -9.4375 -18.765625 C -9.519531 -19.179688 -9.5625 -19.675781 -9.5625 -20.25 Z M -6.421875 -20.25 "/></g></g></g><g fill="#545454" fill-opacity="1"><g transform="translate(258.082157, 53.713798)"><g><path d="M 5.65625 -10.515625 C 5.5 -10.304688 5.390625 -10.050781 5.328125 -9.75 C 5.265625 -9.445312 5.234375 -9.125 5.234375 -8.78125 L 5.234375 -4.09375 C 5.234375 -3.925781 5.242188 -3.78125 5.265625 -3.65625 C 5.296875 -3.53125 5.34375 -3.425781 5.40625 -3.34375 C 5.476562 -3.257812 5.570312 -3.195312 5.6875 -3.15625 C 5.8125 -3.113281 5.960938 -3.09375 6.140625 -3.09375 L 7.5 -3.09375 L 7.5 0 L 5.921875 0 C 5.222656 0 4.609375 -0.09375 4.078125 -0.28125 C 3.554688 -0.476562 3.125 -0.757812 2.78125 -1.125 C 2.4375 -1.488281 2.175781 -1.921875 2 -2.421875 C 1.820312 -2.929688 1.734375 -3.5 1.734375 -4.125 L 1.734375 -9.015625 C 1.734375 -9.679688 1.828125 -10.285156 2.015625 -10.828125 C 2.210938 -11.367188 2.488281 -11.851562 2.84375 -12.28125 C 3.195312 -12.707031 3.625 -13.078125 4.125 -13.390625 C 4.625 -13.710938 5.179688 -13.976562 5.796875 -14.1875 L 8.21875 -12.28125 L 10.578125 -14.25 C 11.179688 -14.082031 11.734375 -13.84375 12.234375 -13.53125 C 12.742188 -13.226562 13.179688 -12.851562 13.546875 -12.40625 C 13.910156 -11.96875 14.195312 -11.460938 14.40625 -10.890625 C 14.613281 -10.328125 14.726562 -9.703125 14.75 -9.015625 L 14.75 0 L 11.265625 0 L 11.265625 -8.78125 C 11.265625 -9.101562 11.226562 -9.414062 11.15625 -9.71875 C 11.09375 -10.019531 10.992188 -10.285156 10.859375 -10.515625 L 9.46875 -9.5 C 9.238281 -9.320312 9.015625 -9.191406 8.796875 -9.109375 C 8.585938 -9.023438 8.382812 -8.984375 8.1875 -8.984375 C 7.988281 -8.984375 7.789062 -9.023438 7.59375 -9.109375 C 7.40625 -9.191406 7.207031 -9.3125 7 -9.46875 Z M 5.65625 -10.515625 "/></g></g><g transform="translate(274.562106, 53.713798)"><g><path d="M -13.640625 -18.984375 L -1.734375 -18.984375 L -1.734375 -16.375 L -13.640625 -16.375 Z M -13.640625 -18.984375 "/></g></g></g><g fill="#545454" fill-opacity="1"><g transform="translate(274.562106, 53.713798)"><g><path d="M 1.9375 -16.125 C 1.9375 -16.375 1.882812 -16.613281 1.78125 -16.84375 C 1.6875 -17.082031 1.53125 -17.296875 1.3125 -17.484375 C 1.101562 -17.671875 0.832031 -17.820312 0.5 -17.9375 C 0.175781 -18.050781 -0.207031 -18.109375 -0.65625 -18.109375 L -0.0625 -20.734375 L 8.84375 -20.734375 L 8.84375 -17.765625 L 5.0625 -17.765625 C 5.207031 -17.441406 5.300781 -17.140625 5.34375 -16.859375 C 5.382812 -16.578125 5.40625 -16.320312 5.40625 -16.09375 L 5.40625 -3.890625 C 5.40625 -3.785156 5.40625 -3.6875 5.40625 -3.59375 C 5.414062 -3.507812 5.429688 -3.429688 5.453125 -3.359375 C 5.484375 -3.296875 5.523438 -3.242188 5.578125 -3.203125 C 5.628906 -3.171875 5.703125 -3.15625 5.796875 -3.15625 L 7.3125 -3.15625 L 7.3125 0 L 5.515625 0 C 4.847656 0 4.285156 -0.09375 3.828125 -0.28125 C 3.367188 -0.46875 3 -0.734375 2.71875 -1.078125 C 2.4375 -1.421875 2.234375 -1.828125 2.109375 -2.296875 C 1.992188 -2.765625 1.9375 -3.285156 1.9375 -3.859375 Z M 1.9375 -16.125 "/></g></g><g transform="translate(282.43793, 53.713798)"><g><path d="M 5.171875 0 L 1.734375 0 L 1.734375 -8.671875 C 1.734375 -9.296875 1.8125 -9.863281 1.96875 -10.375 C 2.125 -10.894531 2.34375 -11.359375 2.625 -11.765625 C 2.90625 -12.171875 3.238281 -12.523438 3.625 -12.828125 C 4.007812 -13.128906 4.429688 -13.375 4.890625 -13.5625 C 5.359375 -13.757812 5.851562 -13.90625 6.375 -14 C 6.894531 -14.101562 7.429688 -14.15625 7.984375 -14.15625 C 8.523438 -14.15625 9.054688 -14.101562 9.578125 -14 C 10.097656 -13.90625 10.585938 -13.757812 11.046875 -13.5625 C 11.515625 -13.375 11.941406 -13.128906 12.328125 -12.828125 C 12.722656 -12.523438 13.054688 -12.171875 13.328125 -11.765625 C 13.609375 -11.359375 13.828125 -10.894531 13.984375 -10.375 C 14.140625 -9.863281 14.21875 -9.296875 14.21875 -8.671875 L 14.21875 0 L 10.78125 0 L 10.78125 -8.453125 C 10.78125 -8.910156 10.71875 -9.300781 10.59375 -9.625 C 10.46875 -9.945312 10.28125 -10.210938 10.03125 -10.421875 C 9.789062 -10.628906 9.492188 -10.78125 9.140625 -10.875 C 8.796875 -10.976562 8.410156 -11.03125 7.984375 -11.03125 C 7.554688 -11.03125 7.164062 -10.984375 6.8125 -10.890625 C 6.46875 -10.796875 6.171875 -10.648438 5.921875 -10.453125 C 5.679688 -10.253906 5.492188 -10 5.359375 -9.6875 C 5.234375 -9.382812 5.171875 -9.023438 5.171875 -8.609375 L 5.171875 -7.78125 C 5.273438 -7.8125 5.398438 -7.84375 5.546875 -7.875 C 5.691406 -7.914062 5.804688 -7.9375 5.890625 -7.9375 L 8.109375 -7.9375 L 8.109375 -5.09375 L 6.140625 -5.09375 C 5.953125 -5.09375 5.796875 -5.070312 5.671875 -5.03125 C 5.546875 -5 5.445312 -4.941406 5.375 -4.859375 C 5.300781 -4.773438 5.25 -4.671875 5.21875 -4.546875 C 5.1875 -4.429688 5.171875 -4.289062 5.171875 -4.125 Z M 5.171875 0 "/></g></g><g transform="translate(298.392824, 53.713798)"><g><path d="M 11.9375 -4.34375 C 11.9375 -3.75 11.816406 -3.179688 11.578125 -2.640625 C 11.347656 -2.097656 10.992188 -1.617188 10.515625 -1.203125 C 10.046875 -0.785156 9.453125 -0.453125 8.734375 -0.203125 C 8.023438 0.046875 7.191406 0.171875 6.234375 0.171875 C 5.585938 0.171875 4.992188 0.117188 4.453125 0.015625 C 3.921875 -0.078125 3.414062 -0.222656 2.9375 -0.421875 C 2.46875 -0.628906 2.019531 -0.890625 1.59375 -1.203125 C 1.175781 -1.515625 0.757812 -1.890625 0.34375 -2.328125 L 2.5 -4.65625 C 2.789062 -4.34375 3.070312 -4.078125 3.34375 -3.859375 C 3.613281 -3.648438 3.890625 -3.476562 4.171875 -3.34375 C 4.460938 -3.207031 4.769531 -3.109375 5.09375 -3.046875 C 5.425781 -2.984375 5.785156 -2.953125 6.171875 -2.953125 C 6.597656 -2.953125 6.953125 -2.988281 7.234375 -3.0625 C 7.523438 -3.132812 7.757812 -3.234375 7.9375 -3.359375 C 8.113281 -3.492188 8.238281 -3.644531 8.3125 -3.8125 C 8.382812 -3.976562 8.421875 -4.15625 8.421875 -4.34375 C 8.421875 -4.519531 8.367188 -4.675781 8.265625 -4.8125 C 8.171875 -4.957031 8.046875 -5.082031 7.890625 -5.1875 C 7.734375 -5.289062 7.554688 -5.378906 7.359375 -5.453125 C 7.160156 -5.523438 6.960938 -5.582031 6.765625 -5.625 L 5.6875 -5.859375 C 4.96875 -6.015625 4.320312 -6.195312 3.75 -6.40625 C 3.175781 -6.625 2.691406 -6.890625 2.296875 -7.203125 C 1.898438 -7.515625 1.597656 -7.890625 1.390625 -8.328125 C 1.179688 -8.765625 1.078125 -9.285156 1.078125 -9.890625 C 1.078125 -10.472656 1.1875 -11.023438 1.40625 -11.546875 C 1.625 -12.066406 1.945312 -12.519531 2.375 -12.90625 C 2.800781 -13.289062 3.332031 -13.59375 3.96875 -13.8125 C 4.613281 -14.039062 5.359375 -14.15625 6.203125 -14.15625 C 6.691406 -14.15625 7.160156 -14.117188 7.609375 -14.046875 C 8.054688 -13.972656 8.492188 -13.859375 8.921875 -13.703125 C 9.359375 -13.546875 9.789062 -13.332031 10.21875 -13.0625 C 10.65625 -12.800781 11.109375 -12.484375 11.578125 -12.109375 L 9.328125 -10.03125 C 9.046875 -10.238281 8.773438 -10.410156 8.515625 -10.546875 C 8.253906 -10.679688 8 -10.785156 7.75 -10.859375 C 7.507812 -10.941406 7.257812 -10.992188 7 -11.015625 C 6.75 -11.046875 6.484375 -11.0625 6.203125 -11.0625 C 5.648438 -11.0625 5.226562 -10.96875 4.9375 -10.78125 C 4.644531 -10.59375 4.5 -10.34375 4.5 -10.03125 C 4.5 -9.84375 4.5625 -9.691406 4.6875 -9.578125 C 4.820312 -9.460938 4.984375 -9.363281 5.171875 -9.28125 C 5.359375 -9.195312 5.554688 -9.128906 5.765625 -9.078125 C 5.972656 -9.035156 6.15625 -8.992188 6.3125 -8.953125 L 7.53125 -8.640625 C 8.125 -8.492188 8.6875 -8.316406 9.21875 -8.109375 C 9.757812 -7.898438 10.226562 -7.628906 10.625 -7.296875 C 11.03125 -6.960938 11.347656 -6.554688 11.578125 -6.078125 C 11.816406 -5.597656 11.9375 -5.019531 11.9375 -4.34375 Z M 11.9375 -4.34375 "/></g></g><g transform="translate(311.231263, 53.713798)"><g><path d="M 2.953125 -4.609375 C 3.210938 -4.015625 3.507812 -3.582031 3.84375 -3.3125 C 4.1875 -3.039062 4.5625 -2.90625 4.96875 -2.90625 C 5.257812 -2.90625 5.507812 -2.945312 5.71875 -3.03125 C 5.925781 -3.125 6.097656 -3.25 6.234375 -3.40625 C 6.367188 -3.5625 6.46875 -3.75 6.53125 -3.96875 C 6.59375 -4.1875 6.625 -4.4375 6.625 -4.71875 L 6.625 -11 L 4.765625 -11 L 4.765625 -14.015625 L 10.125 -14.015625 L 10.125 -4.65625 C 10.125 -3.875 10.007812 -3.179688 9.78125 -2.578125 C 9.550781 -1.984375 9.21875 -1.484375 8.78125 -1.078125 C 8.34375 -0.671875 7.800781 -0.359375 7.15625 -0.140625 C 6.519531 0.0664062 5.789062 0.171875 4.96875 0.171875 C 4.351562 0.171875 3.785156 0.0976562 3.265625 -0.046875 C 2.753906 -0.203125 2.296875 -0.421875 1.890625 -0.703125 C 1.484375 -0.992188 1.117188 -1.34375 0.796875 -1.75 C 0.484375 -2.164062 0.207031 -2.632812 -0.03125 -3.15625 Z M 2.953125 -4.609375 "/></g></g><g transform="translate(323.09581, 53.713798)"><g><path d="M 5.65625 -8.296875 L 5.65625 0 L 2.1875 0 L 2.1875 -7.734375 L 0.625 -9.8125 C 0.945312 -10.539062 1.34375 -11.175781 1.8125 -11.71875 C 2.289062 -12.257812 2.832031 -12.710938 3.4375 -13.078125 C 4.039062 -13.441406 4.707031 -13.710938 5.4375 -13.890625 C 6.175781 -14.066406 6.96875 -14.15625 7.8125 -14.15625 C 8.894531 -14.15625 9.835938 -14.019531 10.640625 -13.75 C 11.453125 -13.488281 12.125 -13.109375 12.65625 -12.609375 C 13.1875 -12.109375 13.578125 -11.5 13.828125 -10.78125 C 14.085938 -10.070312 14.21875 -9.265625 14.21875 -8.359375 L 14.21875 0 L 10.75 0 L 10.75 -8.15625 C 10.75 -9.144531 10.5 -9.882812 10 -10.375 C 9.507812 -10.875 8.769531 -11.117188 7.78125 -11.109375 C 7.539062 -11.109375 7.273438 -11.09375 6.984375 -11.0625 C 6.691406 -11.039062 6.394531 -10.988281 6.09375 -10.90625 C 5.800781 -10.820312 5.515625 -10.703125 5.234375 -10.546875 C 4.953125 -10.398438 4.707031 -10.203125 4.5 -9.953125 Z M 5.65625 -8.296875 "/></g></g><g transform="translate(339.050705, 53.713798)"><g><path d="M -0.109375 -11.546875 C 0.484375 -12.390625 1.1875 -13.035156 2 -13.484375 C 2.8125 -13.929688 3.707031 -14.15625 4.6875 -14.15625 C 6.332031 -14.15625 7.570312 -13.734375 8.40625 -12.890625 C 9.25 -12.054688 9.671875 -10.859375 9.671875 -9.296875 L 9.671875 0 L 6.203125 0 L 6.203125 -9.234375 C 6.203125 -9.503906 6.175781 -9.75 6.125 -9.96875 C 6.082031 -10.195312 6 -10.390625 5.875 -10.546875 C 5.757812 -10.703125 5.601562 -10.820312 5.40625 -10.90625 C 5.207031 -10.988281 4.96875 -11.03125 4.6875 -11.03125 C 4.3125 -11.03125 3.953125 -10.941406 3.609375 -10.765625 C 3.273438 -10.585938 2.953125 -10.296875 2.640625 -9.890625 Z M -0.109375 -11.546875 "/></g></g><g transform="translate(350.466414, 53.713798)"><g><path d="M 11.9375 -4.34375 C 11.9375 -3.75 11.816406 -3.179688 11.578125 -2.640625 C 11.347656 -2.097656 10.992188 -1.617188 10.515625 -1.203125 C 10.046875 -0.785156 9.453125 -0.453125 8.734375 -0.203125 C 8.023438 0.046875 7.191406 0.171875 6.234375 0.171875 C 5.585938 0.171875 4.992188 0.117188 4.453125 0.015625 C 3.921875 -0.078125 3.414062 -0.222656 2.9375 -0.421875 C 2.46875 -0.628906 2.019531 -0.890625 1.59375 -1.203125 C 1.175781 -1.515625 0.757812 -1.890625 0.34375 -2.328125 L 2.5 -4.65625 C 2.789062 -4.34375 3.070312 -4.078125 3.34375 -3.859375 C 3.613281 -3.648438 3.890625 -3.476562 4.171875 -3.34375 C 4.460938 -3.207031 4.769531 -3.109375 5.09375 -3.046875 C 5.425781 -2.984375 5.785156 -2.953125 6.171875 -2.953125 C 6.597656 -2.953125 6.953125 -2.988281 7.234375 -3.0625 C 7.523438 -3.132812 7.757812 -3.234375 7.9375 -3.359375 C 8.113281 -3.492188 8.238281 -3.644531 8.3125 -3.8125 C 8.382812 -3.976562 8.421875 -4.15625 8.421875 -4.34375 C 8.421875 -4.519531 8.367188 -4.675781 8.265625 -4.8125 C 8.171875 -4.957031 8.046875 -5.082031 7.890625 -5.1875 C 7.734375 -5.289062 7.554688 -5.378906 7.359375 -5.453125 C 7.160156 -5.523438 6.960938 -5.582031 6.765625 -5.625 L 5.6875 -5.859375 C 4.96875 -6.015625 4.320312 -6.195312 3.75 -6.40625 C 3.175781 -6.625 2.691406 -6.890625 2.296875 -7.203125 C 1.898438 -7.515625 1.597656 -7.890625 1.390625 -8.328125 C 1.179688 -8.765625 1.078125 -9.285156 1.078125 -9.890625 C 1.078125 -10.472656 1.1875 -11.023438 1.40625 -11.546875 C 1.625 -12.066406 1.945312 -12.519531 2.375 -12.90625 C 2.800781 -13.289062 3.332031 -13.59375 3.96875 -13.8125 C 4.613281 -14.039062 5.359375 -14.15625 6.203125 -14.15625 C 6.691406 -14.15625 7.160156 -14.117188 7.609375 -14.046875 C 8.054688 -13.972656 8.492188 -13.859375 8.921875 -13.703125 C 9.359375 -13.546875 9.789062 -13.332031 10.21875 -13.0625 C 10.65625 -12.800781 11.109375 -12.484375 11.578125 -12.109375 L 9.328125 -10.03125 C 9.046875 -10.238281 8.773438 -10.410156 8.515625 -10.546875 C 8.253906 -10.679688 8 -10.785156 7.75 -10.859375 C 7.507812 -10.941406 7.257812 -10.992188 7 -11.015625 C 6.75 -11.046875 6.484375 -11.0625 6.203125 -11.0625 C 5.648438 -11.0625 5.226562 -10.96875 4.9375 -10.78125 C 4.644531 -10.59375 4.5 -10.34375 4.5 -10.03125 C 4.5 -9.84375 4.5625 -9.691406 4.6875 -9.578125 C 4.820312 -9.460938 4.984375 -9.363281 5.171875 -9.28125 C 5.359375 -9.195312 5.554688 -9.128906 5.765625 -9.078125 C 5.972656 -9.035156 6.15625 -8.992188 6.3125 -8.953125 L 7.53125 -8.640625 C 8.125 -8.492188 8.6875 -8.316406 9.21875 -8.109375 C 9.757812 -7.898438 10.226562 -7.628906 10.625 -7.296875 C 11.03125 -6.960938 11.347656 -6.554688 11.578125 -6.078125 C 11.816406 -5.597656 11.9375 -5.019531 11.9375 -4.34375 Z M 11.9375 -4.34375 "/></g></g></g><g fill="#545454" fill-opacity="1"><g transform="translate(160.227167, 80.713796)"><g><path d="M 5.65625 -8.296875 L 5.65625 0 L 2.1875 0 L 2.1875 -7.734375 L 0.625 -9.8125 C 0.945312 -10.539062 1.34375 -11.175781 1.8125 -11.71875 C 2.289062 -12.257812 2.832031 -12.710938 3.4375 -13.078125 C 4.039062 -13.441406 4.707031 -13.710938 5.4375 -13.890625 C 6.175781 -14.066406 6.96875 -14.15625 7.8125 -14.15625 C 8.894531 -14.15625 9.835938 -14.019531 10.640625 -13.75 C 11.453125 -13.488281 12.125 -13.109375 12.65625 -12.609375 C 13.1875 -12.109375 13.578125 -11.5 13.828125 -10.78125 C 14.085938 -10.070312 14.21875 -9.265625 14.21875 -8.359375 L 14.21875 0 L 10.75 0 L 10.75 -8.15625 C 10.75 -9.144531 10.5 -9.882812 10 -10.375 C 9.507812 -10.875 8.769531 -11.117188 7.78125 -11.109375 C 7.539062 -11.109375 7.273438 -11.09375 6.984375 -11.0625 C 6.691406 -11.039062 6.394531 -10.988281 6.09375 -10.90625 C 5.800781 -10.820312 5.515625 -10.703125 5.234375 -10.546875 C 4.953125 -10.398438 4.707031 -10.203125 4.5 -9.953125 Z M 5.65625 -8.296875 "/></g></g><g transform="translate(176.182061, 80.713796)"><g><path d="M -13.640625 -18.984375 L -1.734375 -18.984375 L -1.734375 -16.375 L -13.640625 -16.375 Z M -13.640625 -18.984375 "/></g></g></g><g fill="#545454" fill-opacity="1"><g transform="translate(176.182061, 80.713796)"><g><path d="M -0.34375 -10.75 C 0.257812 -11.875 1.050781 -12.722656 2.03125 -13.296875 C 3.007812 -13.867188 4.148438 -14.15625 5.453125 -14.15625 C 6.335938 -14.15625 7.15625 -14.039062 7.90625 -13.8125 C 8.65625 -13.582031 9.296875 -13.238281 9.828125 -12.78125 C 10.367188 -12.320312 10.789062 -11.75 11.09375 -11.0625 C 11.394531 -10.375 11.546875 -9.578125 11.546875 -8.671875 L 11.546875 0 L 8.046875 0 L 8.046875 -4.125 C 8.046875 -4.445312 7.984375 -4.6875 7.859375 -4.84375 C 7.734375 -5.007812 7.492188 -5.09375 7.140625 -5.09375 L 4.921875 -5.09375 L 4.921875 -7.9375 L 7.34375 -7.9375 C 7.457031 -7.9375 7.570312 -7.925781 7.6875 -7.90625 C 7.8125 -7.882812 7.929688 -7.828125 8.046875 -7.734375 L 8.046875 -8.5625 C 8.046875 -9.382812 7.820312 -10 7.375 -10.40625 C 6.925781 -10.820312 6.285156 -11.03125 5.453125 -11.03125 C 5.171875 -11.03125 4.898438 -10.992188 4.640625 -10.921875 C 4.390625 -10.859375 4.148438 -10.75 3.921875 -10.59375 C 3.691406 -10.4375 3.472656 -10.242188 3.265625 -10.015625 C 3.066406 -9.785156 2.894531 -9.507812 2.75 -9.1875 Z M -0.34375 -10.75 "/></g></g><g transform="translate(189.469337, 80.713796)"><g><path d="M 5.65625 -8.296875 L 5.65625 0 L 2.1875 0 L 2.1875 -7.734375 L 0.625 -9.8125 C 0.945312 -10.539062 1.34375 -11.175781 1.8125 -11.71875 C 2.289062 -12.257812 2.832031 -12.710938 3.4375 -13.078125 C 4.039062 -13.441406 4.707031 -13.710938 5.4375 -13.890625 C 6.175781 -14.066406 6.96875 -14.15625 7.8125 -14.15625 C 8.894531 -14.15625 9.835938 -14.019531 10.640625 -13.75 C 11.453125 -13.488281 12.125 -13.109375 12.65625 -12.609375 C 13.1875 -12.109375 13.578125 -11.5 13.828125 -10.78125 C 14.085938 -10.070312 14.21875 -9.265625 14.21875 -8.359375 L 14.21875 0 L 10.75 0 L 10.75 -8.15625 C 10.75 -9.144531 10.5 -9.882812 10 -10.375 C 9.507812 -10.875 8.769531 -11.117188 7.78125 -11.109375 C 7.539062 -11.109375 7.273438 -11.09375 6.984375 -11.0625 C 6.691406 -11.039062 6.394531 -10.988281 6.09375 -10.90625 C 5.800781 -10.820312 5.515625 -10.703125 5.234375 -10.546875 C 4.953125 -10.398438 4.707031 -10.203125 4.5 -9.953125 Z M 5.65625 -8.296875 "/></g></g><g transform="translate(205.424231, 80.713796)"><g><path d="M 11.9375 -4.34375 C 11.9375 -3.75 11.816406 -3.179688 11.578125 -2.640625 C 11.347656 -2.097656 10.992188 -1.617188 10.515625 -1.203125 C 10.046875 -0.785156 9.453125 -0.453125 8.734375 -0.203125 C 8.023438 0.046875 7.191406 0.171875 6.234375 0.171875 C 5.585938 0.171875 4.992188 0.117188 4.453125 0.015625 C 3.921875 -0.078125 3.414062 -0.222656 2.9375 -0.421875 C 2.46875 -0.628906 2.019531 -0.890625 1.59375 -1.203125 C 1.175781 -1.515625 0.757812 -1.890625 0.34375 -2.328125 L 2.5 -4.65625 C 2.789062 -4.34375 3.070312 -4.078125 3.34375 -3.859375 C 3.613281 -3.648438 3.890625 -3.476562 4.171875 -3.34375 C 4.460938 -3.207031 4.769531 -3.109375 5.09375 -3.046875 C 5.425781 -2.984375 5.785156 -2.953125 6.171875 -2.953125 C 6.597656 -2.953125 6.953125 -2.988281 7.234375 -3.0625 C 7.523438 -3.132812 7.757812 -3.234375 7.9375 -3.359375 C 8.113281 -3.492188 8.238281 -3.644531 8.3125 -3.8125 C 8.382812 -3.976562 8.421875 -4.15625 8.421875 -4.34375 C 8.421875 -4.519531 8.367188 -4.675781 8.265625 -4.8125 C 8.171875 -4.957031 8.046875 -5.082031 7.890625 -5.1875 C 7.734375 -5.289062 7.554688 -5.378906 7.359375 -5.453125 C 7.160156 -5.523438 6.960938 -5.582031 6.765625 -5.625 L 5.6875 -5.859375 C 4.96875 -6.015625 4.320312 -6.195312 3.75 -6.40625 C 3.175781 -6.625 2.691406 -6.890625 2.296875 -7.203125 C 1.898438 -7.515625 1.597656 -7.890625 1.390625 -8.328125 C 1.179688 -8.765625 1.078125 -9.285156 1.078125 -9.890625 C 1.078125 -10.472656 1.1875 -11.023438 1.40625 -11.546875 C 1.625 -12.066406 1.945312 -12.519531 2.375 -12.90625 C 2.800781 -13.289062 3.332031 -13.59375 3.96875 -13.8125 C 4.613281 -14.039062 5.359375 -14.15625 6.203125 -14.15625 C 6.691406 -14.15625 7.160156 -14.117188 7.609375 -14.046875 C 8.054688 -13.972656 8.492188 -13.859375 8.921875 -13.703125 C 9.359375 -13.546875 9.789062 -13.332031 10.21875 -13.0625 C 10.65625 -12.800781 11.109375 -12.484375 11.578125 -12.109375 L 9.328125 -10.03125 C 9.046875 -10.238281 8.773438 -10.410156 8.515625 -10.546875 C 8.253906 -10.679688 8 -10.785156 7.75 -10.859375 C 7.507812 -10.941406 7.257812 -10.992188 7 -11.015625 C 6.75 -11.046875 6.484375 -11.0625 6.203125 -11.0625 C 5.648438 -11.0625 5.226562 -10.96875 4.9375 -10.78125 C 4.644531 -10.59375 4.5 -10.34375 4.5 -10.03125 C 4.5 -9.84375 4.5625 -9.691406 4.6875 -9.578125 C 4.820312 -9.460938 4.984375 -9.363281 5.171875 -9.28125 C 5.359375 -9.195312 5.554688 -9.128906 5.765625 -9.078125 C 5.972656 -9.035156 6.15625 -8.992188 6.3125 -8.953125 L 7.53125 -8.640625 C 8.125 -8.492188 8.6875 -8.316406 9.21875 -8.109375 C 9.757812 -7.898438 10.226562 -7.628906 10.625 -7.296875 C 11.03125 -6.960938 11.347656 -6.554688 11.578125 -6.078125 C 11.816406 -5.597656 11.9375 -5.019531 11.9375 -4.34375 Z M 11.9375 -4.34375 "/></g></g><g transform="translate(218.262671, 80.713796)"><g><path d="M 11.9375 -4.34375 C 11.9375 -3.75 11.816406 -3.179688 11.578125 -2.640625 C 11.347656 -2.097656 10.992188 -1.617188 10.515625 -1.203125 C 10.046875 -0.785156 9.453125 -0.453125 8.734375 -0.203125 C 8.023438 0.046875 7.191406 0.171875 6.234375 0.171875 C 5.585938 0.171875 4.992188 0.117188 4.453125 0.015625 C 3.921875 -0.078125 3.414062 -0.222656 2.9375 -0.421875 C 2.46875 -0.628906 2.019531 -0.890625 1.59375 -1.203125 C 1.175781 -1.515625 0.757812 -1.890625 0.34375 -2.328125 L 2.5 -4.65625 C 2.789062 -4.34375 3.070312 -4.078125 3.34375 -3.859375 C 3.613281 -3.648438 3.890625 -3.476562 4.171875 -3.34375 C 4.460938 -3.207031 4.769531 -3.109375 5.09375 -3.046875 C 5.425781 -2.984375 5.785156 -2.953125 6.171875 -2.953125 C 6.597656 -2.953125 6.953125 -2.988281 7.234375 -3.0625 C 7.523438 -3.132812 7.757812 -3.234375 7.9375 -3.359375 C 8.113281 -3.492188 8.238281 -3.644531 8.3125 -3.8125 C 8.382812 -3.976562 8.421875 -4.15625 8.421875 -4.34375 C 8.421875 -4.519531 8.367188 -4.675781 8.265625 -4.8125 C 8.171875 -4.957031 8.046875 -5.082031 7.890625 -5.1875 C 7.734375 -5.289062 7.554688 -5.378906 7.359375 -5.453125 C 7.160156 -5.523438 6.960938 -5.582031 6.765625 -5.625 L 5.6875 -5.859375 C 4.96875 -6.015625 4.320312 -6.195312 3.75 -6.40625 C 3.175781 -6.625 2.691406 -6.890625 2.296875 -7.203125 C 1.898438 -7.515625 1.597656 -7.890625 1.390625 -8.328125 C 1.179688 -8.765625 1.078125 -9.285156 1.078125 -9.890625 C 1.078125 -10.472656 1.1875 -11.023438 1.40625 -11.546875 C 1.625 -12.066406 1.945312 -12.519531 2.375 -12.90625 C 2.800781 -13.289062 3.332031 -13.59375 3.96875 -13.8125 C 4.613281 -14.039062 5.359375 -14.15625 6.203125 -14.15625 C 6.691406 -14.15625 7.160156 -14.117188 7.609375 -14.046875 C 8.054688 -13.972656 8.492188 -13.859375 8.921875 -13.703125 C 9.359375 -13.546875 9.789062 -13.332031 10.21875 -13.0625 C 10.65625 -12.800781 11.109375 -12.484375 11.578125 -12.109375 L 9.328125 -10.03125 C 9.046875 -10.238281 8.773438 -10.410156 8.515625 -10.546875 C 8.253906 -10.679688 8 -10.785156 7.75 -10.859375 C 7.507812 -10.941406 7.257812 -10.992188 7 -11.015625 C 6.75 -11.046875 6.484375 -11.0625 6.203125 -11.0625 C 5.648438 -11.0625 5.226562 -10.96875 4.9375 -10.78125 C 4.644531 -10.59375 4.5 -10.34375 4.5 -10.03125 C 4.5 -9.84375 4.5625 -9.691406 4.6875 -9.578125 C 4.820312 -9.460938 4.984375 -9.363281 5.171875 -9.28125 C 5.359375 -9.195312 5.554688 -9.128906 5.765625 -9.078125 C 5.972656 -9.035156 6.15625 -8.992188 6.3125 -8.953125 L 7.53125 -8.640625 C 8.125 -8.492188 8.6875 -8.316406 9.21875 -8.109375 C 9.757812 -7.898438 10.226562 -7.628906 10.625 -7.296875 C 11.03125 -6.960938 11.347656 -6.554688 11.578125 -6.078125 C 11.816406 -5.597656 11.9375 -5.019531 11.9375 -4.34375 Z M 11.9375 -4.34375 "/></g></g><g transform="translate(231.10111, 80.713796)"><g><path d="M 13.390625 -14.015625 L 13.390625 -5.0625 C 13.390625 -4.320312 13.28125 -3.628906 13.0625 -2.984375 C 12.84375 -2.347656 12.523438 -1.796875 12.109375 -1.328125 C 11.703125 -0.859375 11.203125 -0.488281 10.609375 -0.21875 C 10.023438 0.0390625 9.367188 0.171875 8.640625 0.171875 C 7.921875 0.171875 7.28125 0.03125 6.71875 -0.25 C 6.15625 -0.53125 5.625 -0.929688 5.125 -1.453125 L 5.125 0 L 1.734375 0 L 1.734375 -14.015625 L 5.234375 -14.015625 L 5.234375 -5.71875 C 5.234375 -5.257812 5.304688 -4.859375 5.453125 -4.515625 C 5.609375 -4.171875 5.800781 -3.882812 6.03125 -3.65625 C 6.269531 -3.425781 6.53125 -3.253906 6.8125 -3.140625 C 7.101562 -3.035156 7.390625 -2.984375 7.671875 -2.984375 C 7.941406 -2.984375 8.207031 -3.023438 8.46875 -3.109375 C 8.738281 -3.191406 8.976562 -3.332031 9.1875 -3.53125 C 9.394531 -3.738281 9.5625 -4.003906 9.6875 -4.328125 C 9.820312 -4.648438 9.890625 -5.054688 9.890625 -5.546875 L 9.890625 -14.015625 Z M 13.390625 -14.015625 "/></g></g></g><g fill="#545454" fill-opacity="1"><g transform="translate(246.226079, 80.713796)"><g><path d="M 5.234375 -14.015625 L 5.234375 -5.546875 C 5.234375 -5.054688 5.296875 -4.648438 5.421875 -4.328125 C 5.546875 -4.003906 5.710938 -3.738281 5.921875 -3.53125 C 6.128906 -3.332031 6.367188 -3.191406 6.640625 -3.109375 C 6.910156 -3.023438 7.179688 -2.984375 7.453125 -2.984375 C 7.734375 -2.984375 8.015625 -3.035156 8.296875 -3.140625 C 8.585938 -3.253906 8.847656 -3.425781 9.078125 -3.65625 C 9.316406 -3.882812 9.507812 -4.171875 9.65625 -4.515625 C 9.8125 -4.859375 9.890625 -5.257812 9.890625 -5.71875 L 9.890625 -14.015625 L 13.390625 -14.015625 L 13.390625 0 L 10 0 L 10 -1.453125 C 9.5 -0.929688 8.96875 -0.53125 8.40625 -0.25 C 7.84375 0.03125 7.203125 0.171875 6.484375 0.171875 C 5.742188 0.171875 5.082031 0.0390625 4.5 -0.21875 C 3.914062 -0.488281 3.414062 -0.859375 3 -1.328125 C 2.59375 -1.796875 2.28125 -2.347656 2.0625 -2.984375 C 1.84375 -3.628906 1.734375 -4.320312 1.734375 -5.0625 L 1.734375 -14.015625 Z M 5.234375 -14.015625 "/></g></g><g transform="translate(261.351047, 80.713796)"><g><path d="M -13.640625 -18.984375 L -1.734375 -18.984375 L -1.734375 -16.375 L -13.640625 -16.375 Z M -13.640625 -18.984375 "/></g></g></g><g fill="#545454" fill-opacity="1"><g transform="translate(261.351047, 80.713796)"><g><path d="M 9.09375 -5.6875 L 5.765625 -5.6875 C 5.484375 -5.6875 5.234375 -5.644531 5.015625 -5.5625 C 4.804688 -5.488281 4.628906 -5.382812 4.484375 -5.25 C 4.347656 -5.125 4.242188 -4.972656 4.171875 -4.796875 C 4.097656 -4.628906 4.0625 -4.453125 4.0625 -4.265625 C 4.0625 -4.054688 4.085938 -3.859375 4.140625 -3.671875 C 4.191406 -3.484375 4.285156 -3.316406 4.421875 -3.171875 C 4.554688 -3.023438 4.734375 -2.910156 4.953125 -2.828125 C 5.171875 -2.742188 5.441406 -2.703125 5.765625 -2.703125 L 5.765625 0.140625 C 5.046875 0.140625 4.390625 0.046875 3.796875 -0.140625 C 3.203125 -0.335938 2.691406 -0.617188 2.265625 -0.984375 C 1.835938 -1.347656 1.5 -1.800781 1.25 -2.34375 C 1.007812 -2.894531 0.890625 -3.523438 0.890625 -4.234375 C 0.890625 -4.796875 0.988281 -5.332031 1.1875 -5.84375 C 1.382812 -6.363281 1.679688 -6.816406 2.078125 -7.203125 C 2.484375 -7.597656 2.988281 -7.910156 3.59375 -8.140625 C 4.195312 -8.378906 4.90625 -8.5 5.71875 -8.5 L 9.015625 -8.5 L 9.015625 -9.015625 C 9.015625 -9.398438 8.960938 -9.726562 8.859375 -10 C 8.765625 -10.28125 8.613281 -10.507812 8.40625 -10.6875 C 8.195312 -10.863281 7.925781 -10.992188 7.59375 -11.078125 C 7.269531 -11.160156 6.878906 -11.203125 6.421875 -11.203125 C 6.117188 -11.203125 5.835938 -11.175781 5.578125 -11.125 C 5.316406 -11.082031 5.070312 -11.019531 4.84375 -10.9375 C 4.613281 -10.851562 4.394531 -10.742188 4.1875 -10.609375 C 3.988281 -10.472656 3.785156 -10.3125 3.578125 -10.125 L 1.421875 -12.25 C 1.816406 -12.601562 2.203125 -12.90625 2.578125 -13.15625 C 2.953125 -13.40625 3.335938 -13.601562 3.734375 -13.75 C 4.140625 -13.894531 4.566406 -14 5.015625 -14.0625 C 5.472656 -14.125 5.988281 -14.15625 6.5625 -14.15625 C 7.101562 -14.15625 7.609375 -14.117188 8.078125 -14.046875 C 8.554688 -13.984375 9 -13.878906 9.40625 -13.734375 L 11.796875 -16.09375 L 14.078125 -13.90625 L 11.890625 -11.796875 C 12.316406 -11.097656 12.53125 -10.242188 12.53125 -9.234375 L 12.53125 0 L 9.09375 0 Z M 9.09375 -5.6875 "/></g></g><g transform="translate(275.603747, 80.713796)"><g><path d="M -13.640625 -18.984375 L -1.734375 -18.984375 L -1.734375 -16.375 L -13.640625 -16.375 Z M -13.640625 -18.984375 "/></g></g></g><g fill="#545454" fill-opacity="1"><g transform="translate(275.603747, 80.713796)"><g><path d="M 5.65625 -10.515625 C 5.5 -10.304688 5.390625 -10.050781 5.328125 -9.75 C 5.265625 -9.445312 5.234375 -9.125 5.234375 -8.78125 L 5.234375 -4.09375 C 5.234375 -3.925781 5.242188 -3.78125 5.265625 -3.65625 C 5.296875 -3.53125 5.34375 -3.425781 5.40625 -3.34375 C 5.476562 -3.257812 5.570312 -3.195312 5.6875 -3.15625 C 5.8125 -3.113281 5.960938 -3.09375 6.140625 -3.09375 L 7.5 -3.09375 L 7.5 0 L 5.921875 0 C 5.222656 0 4.609375 -0.09375 4.078125 -0.28125 C 3.554688 -0.476562 3.125 -0.757812 2.78125 -1.125 C 2.4375 -1.488281 2.175781 -1.921875 2 -2.421875 C 1.820312 -2.929688 1.734375 -3.5 1.734375 -4.125 L 1.734375 -9.015625 C 1.734375 -9.679688 1.828125 -10.285156 2.015625 -10.828125 C 2.210938 -11.367188 2.488281 -11.851562 2.84375 -12.28125 C 3.195312 -12.707031 3.625 -13.078125 4.125 -13.390625 C 4.625 -13.710938 5.179688 -13.976562 5.796875 -14.1875 L 8.21875 -12.28125 L 10.578125 -14.25 C 11.179688 -14.082031 11.734375 -13.84375 12.234375 -13.53125 C 12.742188 -13.226562 13.179688 -12.851562 13.546875 -12.40625 C 13.910156 -11.96875 14.195312 -11.460938 14.40625 -10.890625 C 14.613281 -10.328125 14.726562 -9.703125 14.75 -9.015625 L 14.75 0 L 11.265625 0 L 11.265625 -8.78125 C 11.265625 -9.101562 11.226562 -9.414062 11.15625 -9.71875 C 11.09375 -10.019531 10.992188 -10.285156 10.859375 -10.515625 L 9.46875 -9.5 C 9.238281 -9.320312 9.015625 -9.191406 8.796875 -9.109375 C 8.585938 -9.023438 8.382812 -8.984375 8.1875 -8.984375 C 7.988281 -8.984375 7.789062 -9.023438 7.59375 -9.109375 C 7.40625 -9.191406 7.207031 -9.3125 7 -9.46875 Z M 5.65625 -10.515625 "/></g></g></g><g fill="#737373" fill-opacity="1"><g transform="translate(160.227167, 106.973074)"><g><path d="M 5.1875 -1.9375 C 5.1875 -1.632812 5.128906 -1.359375 5.015625 -1.109375 C 4.898438 -0.867188 4.738281 -0.660156 4.53125 -0.484375 C 4.320312 -0.304688 4.066406 -0.171875 3.765625 -0.078125 C 3.472656 0.015625 3.140625 0.0625 2.765625 0.0625 C 2.492188 0.0625 2.242188 0.0390625 2.015625 0 C 1.796875 -0.03125 1.585938 -0.0820312 1.390625 -0.15625 C 1.203125 -0.238281 1.019531 -0.335938 0.84375 -0.453125 C 0.664062 -0.578125 0.492188 -0.722656 0.328125 -0.890625 L 0.75 -1.328125 C 0.914062 -1.148438 1.070312 -1.003906 1.21875 -0.890625 C 1.375 -0.785156 1.53125 -0.703125 1.6875 -0.640625 C 1.851562 -0.578125 2.019531 -0.53125 2.1875 -0.5 C 2.363281 -0.476562 2.5625 -0.46875 2.78125 -0.46875 C 3.0625 -0.46875 3.3125 -0.5 3.53125 -0.5625 C 3.757812 -0.632812 3.953125 -0.726562 4.109375 -0.84375 C 4.265625 -0.96875 4.382812 -1.117188 4.46875 -1.296875 C 4.5625 -1.472656 4.609375 -1.675781 4.609375 -1.90625 C 4.609375 -2.132812 4.570312 -2.328125 4.5 -2.484375 C 4.425781 -2.640625 4.328125 -2.769531 4.203125 -2.875 C 4.085938 -2.988281 3.941406 -3.078125 3.765625 -3.140625 C 3.597656 -3.203125 3.410156 -3.253906 3.203125 -3.296875 L 2.359375 -3.421875 C 2.085938 -3.460938 1.835938 -3.53125 1.609375 -3.625 C 1.378906 -3.71875 1.179688 -3.835938 1.015625 -3.984375 C 0.847656 -4.140625 0.71875 -4.320312 0.625 -4.53125 C 0.539062 -4.75 0.5 -5 0.5 -5.28125 C 0.5 -5.582031 0.550781 -5.851562 0.65625 -6.09375 C 0.757812 -6.34375 0.90625 -6.550781 1.09375 -6.71875 C 1.289062 -6.894531 1.53125 -7.023438 1.8125 -7.109375 C 2.09375 -7.203125 2.40625 -7.25 2.75 -7.25 C 2.976562 -7.25 3.179688 -7.234375 3.359375 -7.203125 C 3.546875 -7.171875 3.722656 -7.125 3.890625 -7.0625 C 4.054688 -7 4.210938 -6.921875 4.359375 -6.828125 C 4.515625 -6.734375 4.671875 -6.613281 4.828125 -6.46875 L 4.453125 -6.09375 C 4.347656 -6.195312 4.234375 -6.289062 4.109375 -6.375 C 3.992188 -6.457031 3.867188 -6.523438 3.734375 -6.578125 C 3.597656 -6.640625 3.445312 -6.6875 3.28125 -6.71875 C 3.113281 -6.75 2.921875 -6.765625 2.703125 -6.765625 C 2.453125 -6.765625 2.222656 -6.726562 2.015625 -6.65625 C 1.816406 -6.59375 1.644531 -6.5 1.5 -6.375 C 1.363281 -6.25 1.253906 -6.09375 1.171875 -5.90625 C 1.097656 -5.726562 1.0625 -5.523438 1.0625 -5.296875 C 1.0625 -5.097656 1.097656 -4.921875 1.171875 -4.765625 C 1.253906 -4.609375 1.359375 -4.476562 1.484375 -4.375 C 1.617188 -4.269531 1.769531 -4.179688 1.9375 -4.109375 C 2.113281 -4.046875 2.300781 -3.992188 2.5 -3.953125 L 3.25 -3.828125 C 3.53125 -3.785156 3.785156 -3.71875 4.015625 -3.625 C 4.253906 -3.53125 4.457031 -3.40625 4.625 -3.25 C 4.800781 -3.101562 4.9375 -2.921875 5.03125 -2.703125 C 5.132812 -2.484375 5.1875 -2.226562 5.1875 -1.9375 Z M 5.1875 -1.9375 "/></g></g><g transform="translate(165.842279, 106.973074)"><g><path d="M 2.953125 -6.6875 L 2.953125 0 L 2.34375 0 L 2.34375 -6.6875 L 0.09375 -6.6875 L 0.09375 -7.1875 L 5.21875 -7.1875 L 5.21875 -6.6875 Z M 2.953125 -6.6875 "/></g></g><g transform="translate(171.158196, 106.973074)"><g><path d="M 5.859375 -2.5 C 5.859375 -2.125 5.800781 -1.78125 5.6875 -1.46875 C 5.570312 -1.15625 5.40625 -0.882812 5.1875 -0.65625 C 4.976562 -0.425781 4.71875 -0.25 4.40625 -0.125 C 4.101562 0 3.757812 0.0625 3.375 0.0625 C 2.988281 0.0625 2.640625 0 2.328125 -0.125 C 2.023438 -0.25 1.765625 -0.425781 1.546875 -0.65625 C 1.335938 -0.882812 1.175781 -1.15625 1.0625 -1.46875 C 0.945312 -1.78125 0.890625 -2.125 0.890625 -2.5 L 0.890625 -7.1875 L 1.5 -7.1875 L 1.5 -2.578125 C 1.5 -2.265625 1.539062 -1.976562 1.625 -1.71875 C 1.707031 -1.46875 1.828125 -1.25 1.984375 -1.0625 C 2.140625 -0.875 2.332031 -0.726562 2.5625 -0.625 C 2.800781 -0.519531 3.070312 -0.46875 3.375 -0.46875 C 3.675781 -0.46875 3.941406 -0.519531 4.171875 -0.625 C 4.398438 -0.726562 4.59375 -0.875 4.75 -1.0625 C 4.914062 -1.25 5.039062 -1.46875 5.125 -1.71875 C 5.207031 -1.976562 5.25 -2.265625 5.25 -2.578125 L 5.25 -7.1875 L 5.859375 -7.1875 Z M 5.859375 -2.5 "/></g></g><g transform="translate(177.914422, 106.973074)"><g><path d="M 6.1875 -3.6875 C 6.1875 -3.375 6.175781 -3.066406 6.15625 -2.765625 C 6.132812 -2.460938 6.09375 -2.171875 6.03125 -1.890625 C 5.96875 -1.617188 5.875 -1.367188 5.75 -1.140625 C 5.632812 -0.910156 5.476562 -0.707031 5.28125 -0.53125 C 5.09375 -0.363281 4.859375 -0.234375 4.578125 -0.140625 C 4.296875 -0.046875 3.957031 0 3.5625 0 L 1 0 L 1 -7.1875 L 3.5625 -7.1875 C 3.9375 -7.1875 4.257812 -7.144531 4.53125 -7.0625 C 4.8125 -6.976562 5.050781 -6.859375 5.25 -6.703125 C 5.445312 -6.546875 5.601562 -6.359375 5.71875 -6.140625 C 5.84375 -5.921875 5.9375 -5.679688 6 -5.421875 C 6.070312 -5.160156 6.117188 -4.882812 6.140625 -4.59375 C 6.171875 -4.300781 6.1875 -4 6.1875 -3.6875 Z M 5.59375 -3.6875 C 5.59375 -3.957031 5.582031 -4.21875 5.5625 -4.46875 C 5.539062 -4.71875 5.5 -4.953125 5.4375 -5.171875 C 5.382812 -5.390625 5.304688 -5.59375 5.203125 -5.78125 C 5.109375 -5.96875 4.984375 -6.128906 4.828125 -6.265625 C 4.671875 -6.398438 4.476562 -6.503906 4.25 -6.578125 C 4.019531 -6.660156 3.75 -6.703125 3.4375 -6.703125 L 1.609375 -6.703125 L 1.609375 -0.515625 L 3.4375 -0.515625 C 3.757812 -0.515625 4.035156 -0.554688 4.265625 -0.640625 C 4.503906 -0.722656 4.703125 -0.835938 4.859375 -0.984375 C 5.023438 -1.128906 5.15625 -1.300781 5.25 -1.5 C 5.34375 -1.695312 5.414062 -1.910156 5.46875 -2.140625 C 5.519531 -2.378906 5.550781 -2.628906 5.5625 -2.890625 C 5.582031 -3.148438 5.59375 -3.414062 5.59375 -3.6875 Z M 5.59375 -3.6875 "/></g></g><g transform="translate(184.795891, 106.973074)"><g><path d="M 1 0 L 1 -7.1875 L 5.609375 -7.1875 L 5.609375 -6.703125 L 1.609375 -6.703125 L 1.609375 -3.90625 L 5.015625 -3.90625 L 5.015625 -3.390625 L 1.609375 -3.390625 L 1.609375 -0.515625 L 5.609375 -0.515625 L 5.609375 0 Z M 1 0 "/></g></g><g transform="translate(190.793693, 106.973074)"><g><path d="M 5.734375 0 L 1.59375 -6.21875 L 1.59375 0 L 1 0 L 1 -7.1875 L 1.546875 -7.1875 L 5.6875 -0.984375 L 5.6875 -7.1875 L 6.28125 -7.1875 L 6.28125 0 Z M 5.734375 0 "/></g></g><g transform="translate(198.075248, 106.973074)"><g><path d="M 2.953125 -6.6875 L 2.953125 0 L 2.34375 0 L 2.34375 -6.6875 L 0.09375 -6.6875 L 0.09375 -7.1875 L 5.21875 -7.1875 L 5.21875 -6.6875 Z M 2.953125 -6.6875 "/></g></g><g transform="translate(203.391166, 106.973074)"><g/></g><g transform="translate(206.369193, 106.973074)"><g><path d="M 5.484375 0 L 4.828125 -1.734375 L 1.328125 -1.734375 L 0.671875 0 L 0.03125 0 L 2.8125 -7.1875 L 3.328125 -7.1875 L 6.109375 0 Z M 3.078125 -6.390625 L 1.515625 -2.25 L 4.640625 -2.25 Z M 3.078125 -6.390625 "/></g></g><g transform="translate(212.509635, 106.973074)"><g><path d="M 5.640625 -2.046875 C 5.585938 -1.722656 5.488281 -1.429688 5.34375 -1.171875 C 5.195312 -0.910156 5.015625 -0.6875 4.796875 -0.5 C 4.585938 -0.3125 4.347656 -0.171875 4.078125 -0.078125 C 3.804688 0.015625 3.507812 0.0625 3.1875 0.0625 C 2.84375 0.0625 2.515625 0 2.203125 -0.125 C 1.890625 -0.25 1.613281 -0.429688 1.375 -0.671875 C 1.269531 -0.773438 1.175781 -0.882812 1.09375 -1 C 1.019531 -1.113281 0.957031 -1.234375 0.90625 -1.359375 C 0.863281 -1.484375 0.828125 -1.617188 0.796875 -1.765625 C 0.773438 -1.910156 0.753906 -2.070312 0.734375 -2.25 C 0.722656 -2.4375 0.71875 -2.640625 0.71875 -2.859375 C 0.71875 -3.078125 0.71875 -3.328125 0.71875 -3.609375 C 0.71875 -3.878906 0.71875 -4.125 0.71875 -4.34375 C 0.71875 -4.5625 0.722656 -4.757812 0.734375 -4.9375 C 0.753906 -5.125 0.773438 -5.289062 0.796875 -5.4375 C 0.828125 -5.582031 0.863281 -5.71875 0.90625 -5.84375 C 0.957031 -5.96875 1.019531 -6.082031 1.09375 -6.1875 C 1.175781 -6.300781 1.269531 -6.414062 1.375 -6.53125 C 1.613281 -6.769531 1.890625 -6.953125 2.203125 -7.078125 C 2.515625 -7.203125 2.84375 -7.265625 3.1875 -7.265625 C 3.507812 -7.265625 3.804688 -7.21875 4.078125 -7.125 C 4.359375 -7.03125 4.601562 -6.890625 4.8125 -6.703125 C 5.019531 -6.515625 5.195312 -6.289062 5.34375 -6.03125 C 5.488281 -5.769531 5.585938 -5.472656 5.640625 -5.140625 L 5.0625 -5.140625 C 5.007812 -5.390625 4.925781 -5.613281 4.8125 -5.8125 C 4.707031 -6.007812 4.570312 -6.175781 4.40625 -6.3125 C 4.25 -6.457031 4.066406 -6.566406 3.859375 -6.640625 C 3.648438 -6.710938 3.425781 -6.75 3.1875 -6.75 C 2.9375 -6.75 2.695312 -6.703125 2.46875 -6.609375 C 2.238281 -6.523438 2.03125 -6.394531 1.84375 -6.21875 C 1.757812 -6.125 1.6875 -6.03125 1.625 -5.9375 C 1.5625 -5.84375 1.507812 -5.742188 1.46875 -5.640625 C 1.425781 -5.535156 1.390625 -5.414062 1.359375 -5.28125 C 1.335938 -5.15625 1.320312 -5.007812 1.3125 -4.84375 C 1.300781 -4.675781 1.289062 -4.488281 1.28125 -4.28125 C 1.28125 -4.082031 1.28125 -3.859375 1.28125 -3.609375 C 1.28125 -3.347656 1.28125 -3.113281 1.28125 -2.90625 C 1.289062 -2.707031 1.300781 -2.523438 1.3125 -2.359375 C 1.320312 -2.203125 1.335938 -2.054688 1.359375 -1.921875 C 1.390625 -1.796875 1.425781 -1.675781 1.46875 -1.5625 C 1.507812 -1.457031 1.5625 -1.359375 1.625 -1.265625 C 1.6875 -1.171875 1.757812 -1.082031 1.84375 -1 C 2.03125 -0.820312 2.238281 -0.679688 2.46875 -0.578125 C 2.695312 -0.484375 2.9375 -0.4375 3.1875 -0.4375 C 3.425781 -0.4375 3.648438 -0.472656 3.859375 -0.546875 C 4.066406 -0.628906 4.25 -0.738281 4.40625 -0.875 C 4.570312 -1.019531 4.710938 -1.191406 4.828125 -1.390625 C 4.941406 -1.597656 5.03125 -1.820312 5.09375 -2.0625 L 5.625 -2.0625 Z M 5.640625 -2.046875 "/></g></g><g transform="translate(218.764883, 106.973074)"><g><path d="M 2.953125 -6.6875 L 2.953125 0 L 2.34375 0 L 2.34375 -6.6875 L 0.09375 -6.6875 L 0.09375 -7.1875 L 5.21875 -7.1875 L 5.21875 -6.6875 Z M 2.953125 -6.6875 "/></g></g><g transform="translate(224.080801, 106.973074)"><g><path d="M 1.0625 0 L 1.0625 -7.1875 L 1.671875 -7.1875 L 1.671875 0 Z M 1.0625 0 "/></g></g><g transform="translate(226.832693, 106.973074)"><g><path d="M 3.3125 0 L 2.796875 0 L 0.328125 -7.1875 L 0.9375 -7.1875 L 3.0625 -0.984375 L 5.1875 -7.1875 L 5.8125 -7.1875 Z M 3.3125 0 "/></g></g><g transform="translate(232.959218, 106.973074)"><g><path d="M 1.0625 0 L 1.0625 -7.1875 L 1.671875 -7.1875 L 1.671875 0 Z M 1.0625 0 "/></g></g><g transform="translate(235.71111, 106.973074)"><g><path d="M 2.953125 -6.6875 L 2.953125 0 L 2.34375 0 L 2.34375 -6.6875 L 0.09375 -6.6875 L 0.09375 -7.1875 L 5.21875 -7.1875 L 5.21875 -6.6875 Z M 2.953125 -6.6875 "/></g></g><g transform="translate(241.027028, 106.973074)"><g><path d="M 3.15625 -2.984375 L 3.15625 0 L 2.546875 0 L 2.546875 -2.984375 L 0.3125 -7.1875 L 0.953125 -7.1875 L 2.875 -3.578125 L 4.765625 -7.1875 L 5.390625 -7.1875 Z M 3.15625 -2.984375 "/></g></g><g transform="translate(246.71172, 106.973074)"><g/></g><g transform="translate(249.689747, 106.973074)"><g><path d="M 5.8125 0 L 3.40625 -4.015625 L 1.609375 -1.953125 L 1.609375 0 L 1 0 L 1 -7.1875 L 1.609375 -7.1875 L 1.609375 -2.75 L 5.40625 -7.1875 L 6.140625 -7.1875 L 3.8125 -4.4375 L 6.546875 0 Z M 5.8125 0 "/></g></g><g transform="translate(256.202442, 106.973074)"><g><path d="M 5.484375 0 L 4.828125 -1.734375 L 1.328125 -1.734375 L 0.671875 0 L 0.03125 0 L 2.8125 -7.1875 L 3.328125 -7.1875 L 6.109375 0 Z M 3.078125 -6.390625 L 1.515625 -2.25 L 4.640625 -2.25 Z M 3.078125 -6.390625 "/></g></g><g transform="translate(262.342884, 106.973074)"><g><path d="M 5.1875 -1.9375 C 5.1875 -1.632812 5.128906 -1.359375 5.015625 -1.109375 C 4.898438 -0.867188 4.738281 -0.660156 4.53125 -0.484375 C 4.320312 -0.304688 4.066406 -0.171875 3.765625 -0.078125 C 3.472656 0.015625 3.140625 0.0625 2.765625 0.0625 C 2.492188 0.0625 2.242188 0.0390625 2.015625 0 C 1.796875 -0.03125 1.585938 -0.0820312 1.390625 -0.15625 C 1.203125 -0.238281 1.019531 -0.335938 0.84375 -0.453125 C 0.664062 -0.578125 0.492188 -0.722656 0.328125 -0.890625 L 0.75 -1.328125 C 0.914062 -1.148438 1.070312 -1.003906 1.21875 -0.890625 C 1.375 -0.785156 1.53125 -0.703125 1.6875 -0.640625 C 1.851562 -0.578125 2.019531 -0.53125 2.1875 -0.5 C 2.363281 -0.476562 2.5625 -0.46875 2.78125 -0.46875 C 3.0625 -0.46875 3.3125 -0.5 3.53125 -0.5625 C 3.757812 -0.632812 3.953125 -0.726562 4.109375 -0.84375 C 4.265625 -0.96875 4.382812 -1.117188 4.46875 -1.296875 C 4.5625 -1.472656 4.609375 -1.675781 4.609375 -1.90625 C 4.609375 -2.132812 4.570312 -2.328125 4.5 -2.484375 C 4.425781 -2.640625 4.328125 -2.769531 4.203125 -2.875 C 4.085938 -2.988281 3.941406 -3.078125 3.765625 -3.140625 C 3.597656 -3.203125 3.410156 -3.253906 3.203125 -3.296875 L 2.359375 -3.421875 C 2.085938 -3.460938 1.835938 -3.53125 1.609375 -3.625 C 1.378906 -3.71875 1.179688 -3.835938 1.015625 -3.984375 C 0.847656 -4.140625 0.71875 -4.320312 0.625 -4.53125 C 0.539062 -4.75 0.5 -5 0.5 -5.28125 C 0.5 -5.582031 0.550781 -5.851562 0.65625 -6.09375 C 0.757812 -6.34375 0.90625 -6.550781 1.09375 -6.71875 C 1.289062 -6.894531 1.53125 -7.023438 1.8125 -7.109375 C 2.09375 -7.203125 2.40625 -7.25 2.75 -7.25 C 2.976562 -7.25 3.179688 -7.234375 3.359375 -7.203125 C 3.546875 -7.171875 3.722656 -7.125 3.890625 -7.0625 C 4.054688 -7 4.210938 -6.921875 4.359375 -6.828125 C 4.515625 -6.734375 4.671875 -6.613281 4.828125 -6.46875 L 4.453125 -6.09375 C 4.347656 -6.195312 4.234375 -6.289062 4.109375 -6.375 C 3.992188 -6.457031 3.867188 -6.523438 3.734375 -6.578125 C 3.597656 -6.640625 3.445312 -6.6875 3.28125 -6.71875 C 3.113281 -6.75 2.921875 -6.765625 2.703125 -6.765625 C 2.453125 -6.765625 2.222656 -6.726562 2.015625 -6.65625 C 1.816406 -6.59375 1.644531 -6.5 1.5 -6.375 C 1.363281 -6.25 1.253906 -6.09375 1.171875 -5.90625 C 1.097656 -5.726562 1.0625 -5.523438 1.0625 -5.296875 C 1.0625 -5.097656 1.097656 -4.921875 1.171875 -4.765625 C 1.253906 -4.609375 1.359375 -4.476562 1.484375 -4.375 C 1.617188 -4.269531 1.769531 -4.179688 1.9375 -4.109375 C 2.113281 -4.046875 2.300781 -3.992188 2.5 -3.953125 L 3.25 -3.828125 C 3.53125 -3.785156 3.785156 -3.71875 4.015625 -3.625 C 4.253906 -3.53125 4.457031 -3.40625 4.625 -3.25 C 4.800781 -3.101562 4.9375 -2.921875 5.03125 -2.703125 C 5.132812 -2.484375 5.1875 -2.226562 5.1875 -1.9375 Z M 5.1875 -1.9375 "/></g></g><g transform="translate(267.957996, 106.973074)"><g><path d="M 1 0 L 1 -7.1875 L 5.609375 -7.1875 L 5.609375 -6.703125 L 1.609375 -6.703125 L 1.609375 -3.90625 L 5.015625 -3.90625 L 5.015625 -3.390625 L 1.609375 -3.390625 L 1.609375 -0.515625 L 5.609375 -0.515625 L 5.609375 0 Z M 1 0 "/></g></g><g transform="translate(273.955798, 106.973074)"><g><path d="M 2.953125 -6.6875 L 2.953125 0 L 2.34375 0 L 2.34375 -6.6875 L 0.09375 -6.6875 L 0.09375 -7.1875 L 5.21875 -7.1875 L 5.21875 -6.6875 Z M 2.953125 -6.6875 "/></g></g><g transform="translate(279.271716, 106.973074)"><g><path d="M 5.1875 -1.9375 C 5.1875 -1.632812 5.128906 -1.359375 5.015625 -1.109375 C 4.898438 -0.867188 4.738281 -0.660156 4.53125 -0.484375 C 4.320312 -0.304688 4.066406 -0.171875 3.765625 -0.078125 C 3.472656 0.015625 3.140625 0.0625 2.765625 0.0625 C 2.492188 0.0625 2.242188 0.0390625 2.015625 0 C 1.796875 -0.03125 1.585938 -0.0820312 1.390625 -0.15625 C 1.203125 -0.238281 1.019531 -0.335938 0.84375 -0.453125 C 0.664062 -0.578125 0.492188 -0.722656 0.328125 -0.890625 L 0.75 -1.328125 C 0.914062 -1.148438 1.070312 -1.003906 1.21875 -0.890625 C 1.375 -0.785156 1.53125 -0.703125 1.6875 -0.640625 C 1.851562 -0.578125 2.019531 -0.53125 2.1875 -0.5 C 2.363281 -0.476562 2.5625 -0.46875 2.78125 -0.46875 C 3.0625 -0.46875 3.3125 -0.5 3.53125 -0.5625 C 3.757812 -0.632812 3.953125 -0.726562 4.109375 -0.84375 C 4.265625 -0.96875 4.382812 -1.117188 4.46875 -1.296875 C 4.5625 -1.472656 4.609375 -1.675781 4.609375 -1.90625 C 4.609375 -2.132812 4.570312 -2.328125 4.5 -2.484375 C 4.425781 -2.640625 4.328125 -2.769531 4.203125 -2.875 C 4.085938 -2.988281 3.941406 -3.078125 3.765625 -3.140625 C 3.597656 -3.203125 3.410156 -3.253906 3.203125 -3.296875 L 2.359375 -3.421875 C 2.085938 -3.460938 1.835938 -3.53125 1.609375 -3.625 C 1.378906 -3.71875 1.179688 -3.835938 1.015625 -3.984375 C 0.847656 -4.140625 0.71875 -4.320312 0.625 -4.53125 C 0.539062 -4.75 0.5 -5 0.5 -5.28125 C 0.5 -5.582031 0.550781 -5.851562 0.65625 -6.09375 C 0.757812 -6.34375 0.90625 -6.550781 1.09375 -6.71875 C 1.289062 -6.894531 1.53125 -7.023438 1.8125 -7.109375 C 2.09375 -7.203125 2.40625 -7.25 2.75 -7.25 C 2.976562 -7.25 3.179688 -7.234375 3.359375 -7.203125 C 3.546875 -7.171875 3.722656 -7.125 3.890625 -7.0625 C 4.054688 -7 4.210938 -6.921875 4.359375 -6.828125 C 4.515625 -6.734375 4.671875 -6.613281 4.828125 -6.46875 L 4.453125 -6.09375 C 4.347656 -6.195312 4.234375 -6.289062 4.109375 -6.375 C 3.992188 -6.457031 3.867188 -6.523438 3.734375 -6.578125 C 3.597656 -6.640625 3.445312 -6.6875 3.28125 -6.71875 C 3.113281 -6.75 2.921875 -6.765625 2.703125 -6.765625 C 2.453125 -6.765625 2.222656 -6.726562 2.015625 -6.65625 C 1.816406 -6.59375 1.644531 -6.5 1.5 -6.375 C 1.363281 -6.25 1.253906 -6.09375 1.171875 -5.90625 C 1.097656 -5.726562 1.0625 -5.523438 1.0625 -5.296875 C 1.0625 -5.097656 1.097656 -4.921875 1.171875 -4.765625 C 1.253906 -4.609375 1.359375 -4.476562 1.484375 -4.375 C 1.617188 -4.269531 1.769531 -4.179688 1.9375 -4.109375 C 2.113281 -4.046875 2.300781 -3.992188 2.5 -3.953125 L 3.25 -3.828125 C 3.53125 -3.785156 3.785156 -3.71875 4.015625 -3.625 C 4.253906 -3.53125 4.457031 -3.40625 4.625 -3.25 C 4.800781 -3.101562 4.9375 -2.921875 5.03125 -2.703125 C 5.132812 -2.484375 5.1875 -2.226562 5.1875 -1.9375 Z M 5.1875 -1.9375 "/></g></g><g transform="translate(284.886828, 106.973074)"><g><path d="M 5.484375 0 L 4.828125 -1.734375 L 1.328125 -1.734375 L 0.671875 0 L 0.03125 0 L 2.8125 -7.1875 L 3.328125 -7.1875 L 6.109375 0 Z M 3.078125 -6.390625 L 1.515625 -2.25 L 4.640625 -2.25 Z M 3.078125 -6.390625 "/></g></g><g transform="translate(291.027269, 106.973074)"><g><path d="M 5.453125 0 L 3.671875 -3.296875 L 1.609375 -3.296875 L 1.609375 0 L 1 0 L 1 -7.1875 L 3.90625 -7.1875 C 4.21875 -7.1875 4.503906 -7.144531 4.765625 -7.0625 C 5.023438 -6.988281 5.253906 -6.867188 5.453125 -6.703125 C 5.648438 -6.535156 5.800781 -6.332031 5.90625 -6.09375 C 6.019531 -5.863281 6.078125 -5.59375 6.078125 -5.28125 C 6.078125 -5.019531 6.03125 -4.78125 5.9375 -4.5625 C 5.851562 -4.34375 5.734375 -4.144531 5.578125 -3.96875 C 5.429688 -3.800781 5.25 -3.660156 5.03125 -3.546875 C 4.820312 -3.429688 4.585938 -3.351562 4.328125 -3.3125 C 4.628906 -2.757812 4.9375 -2.203125 5.25 -1.640625 C 5.570312 -1.085938 5.878906 -0.539062 6.171875 0 Z M 5.453125 -5.25 C 5.453125 -5.488281 5.410156 -5.695312 5.328125 -5.875 C 5.253906 -6.0625 5.144531 -6.210938 5 -6.328125 C 4.851562 -6.453125 4.675781 -6.546875 4.46875 -6.609375 C 4.269531 -6.671875 4.050781 -6.703125 3.8125 -6.703125 L 1.609375 -6.703125 L 1.609375 -3.8125 L 3.8125 -3.8125 C 4.050781 -3.8125 4.269531 -3.84375 4.46875 -3.90625 C 4.675781 -3.96875 4.851562 -4.054688 5 -4.171875 C 5.144531 -4.296875 5.253906 -4.445312 5.328125 -4.625 C 5.410156 -4.800781 5.453125 -5.007812 5.453125 -5.25 Z M 5.453125 -5.25 "/></g></g><g transform="translate(297.682603, 106.973074)"><g><path d="M 2.953125 -6.6875 L 2.953125 0 L 2.34375 0 L 2.34375 -6.6875 L 0.09375 -6.6875 L 0.09375 -7.1875 L 5.21875 -7.1875 L 5.21875 -6.6875 Z M 2.953125 -6.6875 "/></g></g><g transform="translate(302.998521, 106.973074)"><g/></g><g transform="translate(305.976548, 106.973074)"><g><path d="M 5.859375 -2.5 C 5.859375 -2.125 5.800781 -1.78125 5.6875 -1.46875 C 5.570312 -1.15625 5.40625 -0.882812 5.1875 -0.65625 C 4.976562 -0.425781 4.71875 -0.25 4.40625 -0.125 C 4.101562 0 3.757812 0.0625 3.375 0.0625 C 2.988281 0.0625 2.640625 0 2.328125 -0.125 C 2.023438 -0.25 1.765625 -0.425781 1.546875 -0.65625 C 1.335938 -0.882812 1.175781 -1.15625 1.0625 -1.46875 C 0.945312 -1.78125 0.890625 -2.125 0.890625 -2.5 L 0.890625 -7.1875 L 1.5 -7.1875 L 1.5 -2.578125 C 1.5 -2.265625 1.539062 -1.976562 1.625 -1.71875 C 1.707031 -1.46875 1.828125 -1.25 1.984375 -1.0625 C 2.140625 -0.875 2.332031 -0.726562 2.5625 -0.625 C 2.800781 -0.519531 3.070312 -0.46875 3.375 -0.46875 C 3.675781 -0.46875 3.941406 -0.519531 4.171875 -0.625 C 4.398438 -0.726562 4.59375 -0.875 4.75 -1.0625 C 4.914062 -1.25 5.039062 -1.46875 5.125 -1.71875 C 5.207031 -1.976562 5.25 -2.265625 5.25 -2.578125 L 5.25 -7.1875 L 5.859375 -7.1875 Z M 5.859375 -2.5 "/></g></g><g transform="translate(312.732773, 106.973074)"><g><path d="M 5.734375 0 L 1.59375 -6.21875 L 1.59375 0 L 1 0 L 1 -7.1875 L 1.546875 -7.1875 L 5.6875 -0.984375 L 5.6875 -7.1875 L 6.28125 -7.1875 L 6.28125 0 Z M 5.734375 0 "/></g></g><g transform="translate(320.014328, 106.973074)"><g><path d="M 1.0625 0 L 1.0625 -7.1875 L 1.671875 -7.1875 L 1.671875 0 Z M 1.0625 0 "/></g></g><g transform="translate(322.76622, 106.973074)"><g><path d="M 3.3125 0 L 2.796875 0 L 0.328125 -7.1875 L 0.9375 -7.1875 L 3.0625 -0.984375 L 5.1875 -7.1875 L 5.8125 -7.1875 Z M 3.3125 0 "/></g></g><g transform="translate(328.892746, 106.973074)"><g><path d="M 1 0 L 1 -7.1875 L 5.609375 -7.1875 L 5.609375 -6.703125 L 1.609375 -6.703125 L 1.609375 -3.90625 L 5.015625 -3.90625 L 5.015625 -3.390625 L 1.609375 -3.390625 L 1.609375 -0.515625 L 5.609375 -0.515625 L 5.609375 0 Z M 1 0 "/></g></g><g transform="translate(334.890548, 106.973074)"><g><path d="M 5.453125 0 L 3.671875 -3.296875 L 1.609375 -3.296875 L 1.609375 0 L 1 0 L 1 -7.1875 L 3.90625 -7.1875 C 4.21875 -7.1875 4.503906 -7.144531 4.765625 -7.0625 C 5.023438 -6.988281 5.253906 -6.867188 5.453125 -6.703125 C 5.648438 -6.535156 5.800781 -6.332031 5.90625 -6.09375 C 6.019531 -5.863281 6.078125 -5.59375 6.078125 -5.28125 C 6.078125 -5.019531 6.03125 -4.78125 5.9375 -4.5625 C 5.851562 -4.34375 5.734375 -4.144531 5.578125 -3.96875 C 5.429688 -3.800781 5.25 -3.660156 5.03125 -3.546875 C 4.820312 -3.429688 4.585938 -3.351562 4.328125 -3.3125 C 4.628906 -2.757812 4.9375 -2.203125 5.25 -1.640625 C 5.570312 -1.085938 5.878906 -0.539062 6.171875 0 Z M 5.453125 -5.25 C 5.453125 -5.488281 5.410156 -5.695312 5.328125 -5.875 C 5.253906 -6.0625 5.144531 -6.210938 5 -6.328125 C 4.851562 -6.453125 4.675781 -6.546875 4.46875 -6.609375 C 4.269531 -6.671875 4.050781 -6.703125 3.8125 -6.703125 L 1.609375 -6.703125 L 1.609375 -3.8125 L 3.8125 -3.8125 C 4.050781 -3.8125 4.269531 -3.84375 4.46875 -3.90625 C 4.675781 -3.96875 4.851562 -4.054688 5 -4.171875 C 5.144531 -4.296875 5.253906 -4.445312 5.328125 -4.625 C 5.410156 -4.800781 5.453125 -5.007812 5.453125 -5.25 Z M 5.453125 -5.25 "/></g></g><g transform="translate(341.545882, 106.973074)"><g><path d="M 5.1875 -1.9375 C 5.1875 -1.632812 5.128906 -1.359375 5.015625 -1.109375 C 4.898438 -0.867188 4.738281 -0.660156 4.53125 -0.484375 C 4.320312 -0.304688 4.066406 -0.171875 3.765625 -0.078125 C 3.472656 0.015625 3.140625 0.0625 2.765625 0.0625 C 2.492188 0.0625 2.242188 0.0390625 2.015625 0 C 1.796875 -0.03125 1.585938 -0.0820312 1.390625 -0.15625 C 1.203125 -0.238281 1.019531 -0.335938 0.84375 -0.453125 C 0.664062 -0.578125 0.492188 -0.722656 0.328125 -0.890625 L 0.75 -1.328125 C 0.914062 -1.148438 1.070312 -1.003906 1.21875 -0.890625 C 1.375 -0.785156 1.53125 -0.703125 1.6875 -0.640625 C 1.851562 -0.578125 2.019531 -0.53125 2.1875 -0.5 C 2.363281 -0.476562 2.5625 -0.46875 2.78125 -0.46875 C 3.0625 -0.46875 3.3125 -0.5 3.53125 -0.5625 C 3.757812 -0.632812 3.953125 -0.726562 4.109375 -0.84375 C 4.265625 -0.96875 4.382812 -1.117188 4.46875 -1.296875 C 4.5625 -1.472656 4.609375 -1.675781 4.609375 -1.90625 C 4.609375 -2.132812 4.570312 -2.328125 4.5 -2.484375 C 4.425781 -2.640625 4.328125 -2.769531 4.203125 -2.875 C 4.085938 -2.988281 3.941406 -3.078125 3.765625 -3.140625 C 3.597656 -3.203125 3.410156 -3.253906 3.203125 -3.296875 L 2.359375 -3.421875 C 2.085938 -3.460938 1.835938 -3.53125 1.609375 -3.625 C 1.378906 -3.71875 1.179688 -3.835938 1.015625 -3.984375 C 0.847656 -4.140625 0.71875 -4.320312 0.625 -4.53125 C 0.539062 -4.75 0.5 -5 0.5 -5.28125 C 0.5 -5.582031 0.550781 -5.851562 0.65625 -6.09375 C 0.757812 -6.34375 0.90625 -6.550781 1.09375 -6.71875 C 1.289062 -6.894531 1.53125 -7.023438 1.8125 -7.109375 C 2.09375 -7.203125 2.40625 -7.25 2.75 -7.25 C 2.976562 -7.25 3.179688 -7.234375 3.359375 -7.203125 C 3.546875 -7.171875 3.722656 -7.125 3.890625 -7.0625 C 4.054688 -7 4.210938 -6.921875 4.359375 -6.828125 C 4.515625 -6.734375 4.671875 -6.613281 4.828125 -6.46875 L 4.453125 -6.09375 C 4.347656 -6.195312 4.234375 -6.289062 4.109375 -6.375 C 3.992188 -6.457031 3.867188 -6.523438 3.734375 -6.578125 C 3.597656 -6.640625 3.445312 -6.6875 3.28125 -6.71875 C 3.113281 -6.75 2.921875 -6.765625 2.703125 -6.765625 C 2.453125 -6.765625 2.222656 -6.726562 2.015625 -6.65625 C 1.816406 -6.59375 1.644531 -6.5 1.5 -6.375 C 1.363281 -6.25 1.253906 -6.09375 1.171875 -5.90625 C 1.097656 -5.726562 1.0625 -5.523438 1.0625 -5.296875 C 1.0625 -5.097656 1.097656 -4.921875 1.171875 -4.765625 C 1.253906 -4.609375 1.359375 -4.476562 1.484375 -4.375 C 1.617188 -4.269531 1.769531 -4.179688 1.9375 -4.109375 C 2.113281 -4.046875 2.300781 -3.992188 2.5 -3.953125 L 3.25 -3.828125 C 3.53125 -3.785156 3.785156 -3.71875 4.015625 -3.625 C 4.253906 -3.53125 4.457031 -3.40625 4.625 -3.25 C 4.800781 -3.101562 4.9375 -2.921875 5.03125 -2.703125 C 5.132812 -2.484375 5.1875 -2.226562 5.1875 -1.9375 Z M 5.1875 -1.9375 "/></g></g><g transform="translate(347.160994, 106.973074)"><g><path d="M 1.0625 0 L 1.0625 -7.1875 L 1.671875 -7.1875 L 1.671875 0 Z M 1.0625 0 "/></g></g><g transform="translate(349.912886, 106.973074)"><g><path d="M 2.953125 -6.6875 L 2.953125 0 L 2.34375 0 L 2.34375 -6.6875 L 0.09375 -6.6875 L 0.09375 -7.1875 L 5.21875 -7.1875 L 5.21875 -6.6875 Z M 2.953125 -6.6875 "/></g></g><g transform="translate(355.228804, 106.973074)"><g><path d="M 3.15625 -2.984375 L 3.15625 0 L 2.546875 0 L 2.546875 -2.984375 L 0.3125 -7.1875 L 0.953125 -7.1875 L 2.875 -3.578125 L 4.765625 -7.1875 L 5.390625 -7.1875 Z M 3.15625 -2.984375 "/></g></g></g><path stroke-linecap="butt" transform="matrix(0.75, 0, 0, 0.75, 160.227167, 90.013854)" fill="none" stroke-linejoin="miter" d="M -0.000805567 0.502361 L 273.749211 0.502361 " stroke="#000000" stroke-width="1" stroke-opacity="1" stroke-miterlimit="4"/></svg>